# This file uses centimeters as units for non-parametric coordinates.

g default
v 0.060341 -0.500000 0.500000
v 0.060341 0.000000 0.500000
v 0.060341 0.500000 0.500000
v 0.060341 0.500000 0.000000
v 0.060341 0.500000 -0.500000
v 0.060341 0.000000 -0.500000
v 0.060341 -0.500000 -0.500000
v 0.060341 -0.500000 0.000000
v 0.060341 0.000000 0.000000
v -0.048365 -0.408043 0.408043
v -0.038565 -0.500000 0.500000
v -0.048365 0.053213 0.408043
v -0.048365 -0.053213 0.408043
v -0.038565 0.000000 0.500000
v -0.048365 0.408043 0.408043
v -0.038565 0.500000 0.500000
v -0.048365 0.408043 -0.051277
v -0.048365 0.408043 0.051277
v -0.038565 0.500000 0.000000
v -0.048365 0.408043 -0.408043
v -0.038565 0.500000 -0.500000
v -0.048365 -0.053213 -0.408043
v -0.048365 0.053213 -0.408043
v -0.038565 0.000000 -0.500000
v -0.048365 -0.408043 -0.408043
v -0.038565 -0.500000 -0.500000
v -0.048365 -0.408043 0.051277
v -0.048365 -0.408043 -0.051277
v -0.038565 -0.500000 0.000000
v -0.048365 0.048906 0.047126
v -0.048365 0.048906 -0.047126
v -0.048365 -0.048906 -0.047126
v -0.048365 -0.048906 0.047126
v -0.060341 0.006275 0.408043
v -0.060341 0.006275 0.047126
v -0.060341 0.006275 -0.408043
v -0.060341 0.006275 -0.047126
v -0.060341 0.408043 -0.001189
v -0.060341 -0.408043 -0.001189
v -0.060341 0.048906 -0.001189
v -0.060341 -0.048906 -0.001189
v -0.060341 0.006275 -0.001189
v -0.055441 -0.454022 0.454022
v -0.055441 0.001046 0.454022
v -0.055441 0.454022 0.454022
v -0.055441 0.454022 -0.454022
v -0.055441 0.001046 -0.454022
v -0.055441 -0.454022 -0.000198
v -0.055441 0.454022 -0.000198
v -0.055441 -0.454022 -0.454022
v -0.024209 -0.067864 0.393046
v -0.024209 -0.063916 0.062205
v -0.024209 -0.393125 0.066010
v -0.024209 -0.393125 0.393046
v -0.024209 0.067865 0.393046
v -0.024209 0.393125 0.393046
v -0.024209 0.393125 0.066010
v -0.024209 0.063916 0.062205
v -0.024209 0.393125 -0.066010
v -0.024209 0.393125 -0.393046
v -0.024209 0.067864 -0.393046
v -0.024209 0.063916 -0.062205
v -0.024209 -0.067865 -0.393046
v -0.024209 -0.393125 -0.393046
v -0.024209 -0.393125 -0.066010
v -0.024209 -0.063916 -0.062205
vt 0.500000 0.000000
vt 1.000000 0.000000
vt 1.000000 0.500000
vt 0.500000 0.500000
vt 0.000000 0.000000
vt 0.000000 0.500000
vt 1.000000 1.000000
vt 0.500000 1.000000
vt 0.000000 1.000000
vt 0.501189 0.548906
vt 0.501189 0.506275
vt 0.452874 0.506275
vt 0.452874 0.548906
vt 0.501189 0.451094
vt 0.452874 0.451094
vt 0.547126 0.548906
vt 0.547126 0.506275
vt 0.547126 0.451094
vt 0.000000 0.500000
vt 0.000000 0.000000
vt 0.000000 1.000000
vt 1.000000 0.500000
vt 1.000000 1.000000
vt 0.045978 0.045978
vt 0.045978 0.501046
vt 0.091957 0.446787
vt 0.091957 0.091957
vt 0.045978 0.954022
vt 0.091957 0.908043
vt 0.091957 0.553213
vt 0.954022 0.954022
vt 0.954022 0.501046
vt 0.908043 0.553213
vt 0.908043 0.908043
vt 0.091957 0.506275
vt 0.908043 0.506275
vt 0.908043 0.446787
vt 0.500000 1.000000
vt 0.500000 0.000000
vt 1.000000 0.000000
vt 0.500198 0.045978
vt 0.448723 0.091957
vt 0.500198 0.954022
vt 0.448723 0.908043
vt 0.551277 0.908043
vt 0.954022 0.045978
vt 0.551277 0.091957
vt 0.908043 0.091957
vt 0.501189 0.908043
vt 0.501189 0.091957
vt 0.106954 0.432136
vt 0.437795 0.436084
vt 0.433990 0.106875
vt 0.106954 0.106875
vt 0.106954 0.567865
vt 0.106954 0.893125
vt 0.433990 0.893125
vt 0.437795 0.563916
vt 0.566010 0.893125
vt 0.893046 0.893125
vt 0.893046 0.567865
vt 0.562205 0.563916
vt 0.893046 0.432136
vt 0.893046 0.106875
vt 0.566010 0.106875
vt 0.562205 0.436084
vn 1.000000 0.000000 0.000000
vn 1.000000 0.000000 0.000000
vn 1.000000 0.000000 0.000000
vn 1.000000 0.000000 0.000000
vn 1.000000 0.000000 0.000000
vn 1.000000 0.000000 0.000000
vn 1.000000 0.000000 0.000000
vn 1.000000 0.000000 0.000000
vn 1.000000 0.000000 0.000000
vn -0.975312 0.012796 0.220463
vn -0.982904 0.138059 0.121818
vn -0.969368 0.245311 0.012207
vn -0.984613 0.124316 0.122811
vn -0.986702 -0.107073 0.122289
vn -0.975938 -0.012430 0.217694
vn -0.987933 -0.109326 0.109709
vn -0.980983 -0.193671 0.012793
vn -0.982130 0.137951 -0.128024
vn -0.972904 0.012678 -0.230862
vn -0.983840 0.127189 -0.126020
vn -0.969221 0.245885 -0.012273
vn -0.973586 -0.012317 -0.227989
vn -0.985919 -0.106988 -0.128518
vn -0.980889 -0.194145 -0.012864
vn -0.987388 -0.111586 -0.112307
vn 0.000000 -0.000000 1.000000
vn 0.000000 0.000000 1.000000
vn 0.000000 0.000000 1.000000
vn 0.000000 -0.000000 1.000000
vn 0.000000 0.000000 1.000000
vn 0.000000 0.000000 1.000000
vn 0.000000 0.000000 -1.000000
vn 0.000000 0.000000 -1.000000
vn 0.000000 0.000000 -1.000000
vn 0.000000 0.000000 -1.000000
vn -0.988364 0.000000 -0.152106
vn -0.991280 -0.018747 -0.130431
vn -0.989077 -0.004131 -0.147341
vn -0.988364 0.000000 -0.152106
vn -0.990602 0.014494 -0.136005
vn -0.988364 -0.000000 -0.152106
vn -0.988364 -0.000000 -0.152106
vn -0.989082 0.004332 -0.147301
vn -0.988364 -0.000000 0.152106
vn -0.990602 0.014494 0.136006
vn -0.989082 0.004332 0.147301
vn -0.988364 -0.000000 0.152106
vn -0.960703 0.245115 0.130261
vn -0.960703 0.245116 -0.130262
vn -0.991280 -0.018748 0.130431
vn -0.989077 -0.004131 0.147341
vn -0.977050 -0.196697 -0.081758
vn -0.977049 -0.196698 0.081759
vn 0.000000 1.000000 0.000000
vn 0.000000 1.000000 0.000000
vn 0.000000 1.000000 0.000000
vn 0.000000 1.000000 0.000000
vn 0.000000 1.000000 0.000000
vn 0.000000 1.000000 0.000000
vn 0.000000 -1.000000 0.000000
vn 0.000000 -1.000000 0.000000
vn 0.000000 -1.000000 0.000000
vn 0.000000 -1.000000 0.000000
vn 0.000000 -1.000000 0.000000
vn 0.000000 -1.000000 0.000000
vn -0.990825 0.134155 0.016373
vn -0.988364 0.152107 0.000000
vn -0.988364 0.152107 0.000000
vn -0.989073 0.147360 0.004338
vn -0.988364 -0.152106 -0.000000
vn -0.990825 -0.134154 0.016373
vn -0.989074 -0.147359 0.004338
vn -0.988364 -0.152106 -0.000000
vn -0.990700 -0.135167 -0.015571
vn -0.988364 -0.152106 0.000000
vn -0.988364 -0.152106 0.000000
vn -0.989074 -0.147352 -0.004378
vn -0.988364 0.152106 -0.000000
vn -0.990700 0.135168 -0.015571
vn -0.989074 0.147352 -0.004378
vn -0.988364 0.152106 -0.000000
vn -0.970171 0.098622 0.221455
vn -0.970171 -0.098621 0.221455
vn 0.000000 -0.000000 -1.000000
vn 0.000000 -0.000000 -1.000000
vn -1.000000 0.000000 0.000000
vn -1.000000 0.000000 0.000000
vn -1.000000 0.000000 0.000000
vn -1.000000 0.000000 0.000000
vn -1.000000 0.000000 0.000000
vn -1.000000 0.000000 0.000000
vn -1.000000 0.000000 0.000000
vn -1.000000 0.000000 0.000000
vn -1.000000 0.000000 0.000000
vn -1.000000 0.000000 0.000000
vn -1.000000 0.000000 0.000000
vn -1.000000 0.000000 0.000000
vn -1.000000 0.000000 0.000000
vn -1.000000 0.000000 0.000000
vn -1.000000 0.000000 0.000000
vn -1.000000 0.000000 0.000000
vn -0.966055 0.258334 -0.001542
vn -0.966055 0.258334 -0.001542
vn -0.972900 -0.001336 0.231224
vn -0.972900 -0.001336 0.231224
vn -0.966054 0.258335 0.001542
vn -0.966054 0.258335 0.001542
vn -0.988364 0.000000 0.152106
vn -0.988364 0.000000 0.152106
vn -0.972900 0.001336 0.231224
vn -0.972900 0.001336 0.231224
vn -0.978873 -0.204467 0.001220
vn -0.978873 -0.204467 0.001220
vn -0.978873 -0.204467 -0.001220
vn -0.978873 -0.204467 -0.001220
vn -0.966893 0.108028 -0.231186
vn -0.970270 -0.001399 -0.242021
vn -0.970270 -0.001399 -0.242021
vn -0.970270 0.001399 -0.242021
vn -0.970270 0.001399 -0.242021
vn -0.966894 -0.108027 -0.231186
vn -0.938762 -0.344567 0.000000
vn -0.938762 -0.344567 0.000000
vn -0.938762 -0.344567 0.000000
vn -0.938762 -0.344567 0.000000
vn -0.938762 -0.344567 0.000000
vn -0.938762 -0.344567 0.000000
vn -0.938762 0.000000 0.344567
vn -0.938762 0.000000 0.344567
vn -0.938762 0.000000 0.344567
vn -0.938762 0.000000 0.344567
vn -0.938762 -0.000000 0.344567
vn -0.938762 -0.000000 0.344567
vn -0.938762 0.344566 0.000000
vn -0.938762 0.344566 -0.000000
vn -0.938762 0.344566 -0.000000
vn -0.938762 0.344566 0.000000
vn -0.938762 0.344566 0.000000
vn -0.938762 0.344566 0.000000
vn -0.938762 -0.000000 -0.344567
vn -0.938762 -0.000000 -0.344567
vn -0.938762 -0.000000 -0.344567
vn -0.938762 -0.000000 -0.344567
vn -0.938762 0.000000 -0.344567
vn -0.938762 0.000000 -0.344567
vn -0.523181 -0.852161 -0.010170
vn -0.523181 -0.852161 -0.010170
vn -0.523181 -0.852161 -0.010170
vn -0.523181 -0.852161 -0.010170
vn -0.525115 0.009835 0.850975
vn -0.525115 0.009835 0.850975
vn -0.525115 0.009835 0.850975
vn -0.525115 0.009835 0.850975
vn -0.525453 0.850823 0.000000
vn -0.525452 0.850823 0.000000
vn -0.525452 0.850823 0.000000
vn -0.525452 0.850823 0.000000
vn -0.527469 -0.000000 -0.849574
vn -0.527469 -0.000000 -0.849574
vn -0.527469 -0.000000 -0.849574
vn -0.527469 -0.000000 -0.849574
vn -0.527469 0.000000 -0.849574
vn -0.527469 0.000000 -0.849574
vn -0.527469 0.000000 -0.849574
vn -0.527469 0.000000 -0.849574
vn -0.525452 -0.850823 0.000000
vn -0.525453 -0.850823 0.000000
vn -0.525452 -0.850823 0.000000
vn -0.525452 -0.850823 0.000000
vn -0.525115 -0.009835 0.850975
vn -0.525115 -0.009835 0.850975
vn -0.525115 -0.009835 0.850975
vn -0.525115 -0.009835 0.850975
vn -0.523181 0.852161 -0.010170
vn -0.523181 0.852161 -0.010170
vn -0.523181 0.852161 -0.010170
vn -0.523181 0.852161 -0.010170
vn -0.525452 -0.850823 -0.000000
vn -0.525452 -0.850823 -0.000000
vn -0.525452 -0.850823 -0.000000
vn -0.525452 -0.850823 -0.000000
vn -0.527469 0.000000 0.849574
vn -0.527469 0.000000 0.849574
vn -0.527469 0.000000 0.849574
vn -0.527469 0.000000 0.849574
vn -0.523181 0.852161 0.010170
vn -0.523181 0.852161 0.010170
vn -0.523181 0.852161 0.010170
vn -0.523181 0.852161 0.010170
vn -0.525115 -0.009835 -0.850975
vn -0.525115 -0.009835 -0.850975
vn -0.525115 -0.009835 -0.850975
vn -0.525115 -0.009835 -0.850975
vn -0.527469 -0.000000 0.849574
vn -0.527469 -0.000000 0.849574
vn -0.527469 -0.000000 0.849574
vn -0.527469 -0.000000 0.849574
vn -0.525452 0.850823 -0.000000
vn -0.525453 0.850823 -0.000000
vn -0.525452 0.850823 -0.000000
vn -0.525452 0.850823 -0.000000
vn -0.525115 0.009835 -0.850975
vn -0.525115 0.009835 -0.850975
vn -0.525115 0.009835 -0.850975
vn -0.525115 0.009835 -0.850975
vn -0.523181 -0.852161 0.010170
vn -0.523181 -0.852161 0.010170
vn -0.523181 -0.852161 0.010170
vn -0.523181 -0.852161 0.010170
s 1
g mdl_window
f 8/1/1 7/2/2 6/3/3 9/4/4
f 1/5/5 8/1/1 9/4/4 2/6/6
f 9/4/4 6/3/3 5/7/7 4/8/8
f 2/6/6 9/4/4 4/8/8 3/9/9
s 2
f 40/10/10 42/11/11 35/12/12 30/13/13
s 3
f 42/11/14 41/14/15 33/15/16 35/12/17
s 4
f 42/11/18 40/10/19 31/16/20 37/17/21
s 5
f 41/14/22 42/11/23 37/17/24 32/18/25
s 6
f 1/5/26 2/6/27 14/19/28 11/20/29
f 2/6/27 3/9/30 16/21/31 14/19/28
s 7
f 5/7/32 6/3/33 24/22/34 21/23/35
s 8
f 43/24/36 44/25/37 13/26/38 10/27/39
s 9
f 44/25/40 45/28/41 15/29/42 12/30/43
s 10
f 46/31/44 47/32/45 23/33/46 20/34/47
s 9
f 44/25/40 12/30/43 34/35/48
s 10
f 47/32/45 36/36/49 23/33/46
s 11
f 47/32/50 22/37/51 36/36/52
s 8
f 44/25/37 34/35/53 13/26/38
s 12
f 3/9/54 4/8/55 19/38/56 16/21/57
f 4/8/55 5/7/58 21/23/59 19/38/56
s 13
f 7/2/60 8/1/61 29/39/62 26/40/63
f 8/1/61 1/5/64 11/20/65 29/39/62
s 14
f 48/41/66 43/24/67 10/27/68 27/42/69
s 15
f 45/28/70 49/43/71 18/44/72 15/29/73
s 16
f 49/43/74 46/31/75 20/34/76 17/45/77
s 17
f 50/46/78 48/41/79 28/47/80 25/48/81
s 15
f 49/43/71 38/49/82 18/44/72
s 14
f 48/41/66 27/42/69 39/50/83
s 7
f 24/22/34 6/3/33 7/2/84 26/40/85
s off
f 51/51/86 52/52/87 53/53/88 54/54/89
f 55/55/90 56/56/91 57/57/92 58/58/93
f 59/59/94 60/60/95 61/61/96 62/62/97
f 63/63/98 64/64/99 65/65/100 66/66/101
s 2
f 30/13/13 35/12/12 34/35/102 12/30/103
f 38/49/104 40/10/10 30/13/13 18/44/105
s 4
f 36/36/106 37/17/21 31/16/20 23/33/107
s 11
f 47/32/50 50/46/108 25/48/109 22/37/51
s 3
f 33/15/16 41/14/15 39/50/110 27/42/111
s 5
f 32/18/25 37/17/24 36/36/112 22/37/113
s 3
f 34/35/114 35/12/17 33/15/16 13/26/115
s 16
f 49/43/74 17/45/77 38/49/116
s 4
f 31/16/20 40/10/19 38/49/117 17/45/118
s 5
f 39/50/119 41/14/22 32/18/25 28/47/120
s 17
f 48/41/79 39/50/121 28/47/80
s 18
f 48/41/122 50/46/123 26/40/124 29/39/125
f 43/24/126 48/41/122 29/39/125 11/20/127
s 19
f 44/25/128 43/24/129 11/20/130 14/19/131
f 45/28/132 44/25/128 14/19/131 16/21/133
s 20
f 49/43/134 45/28/135 16/21/136 19/38/137
f 46/31/138 49/43/134 19/38/137 21/23/139
s 21
f 47/32/140 46/31/141 21/23/142 24/22/143
f 50/46/144 47/32/140 24/22/143 26/40/145
s off
f 13/26/146 33/15/147 52/52/148 51/51/149
f 33/15/150 27/42/151 53/53/152 52/52/153
f 27/42/154 10/27/155 54/54/156 53/53/157
f 10/27/158 13/26/159 51/51/160 54/54/161
f 12/30/162 15/29/163 56/56/164 55/55/165
f 15/29/166 18/44/167 57/57/168 56/56/169
f 18/44/170 30/13/171 58/58/172 57/57/173
f 30/13/174 12/30/175 55/55/176 58/58/177
f 17/45/178 20/34/179 60/60/180 59/59/181
f 20/34/182 23/33/183 61/61/184 60/60/185
f 23/33/186 31/16/187 62/62/188 61/61/189
f 31/16/190 17/45/191 59/59/192 62/62/193
f 22/37/194 25/48/195 64/64/196 63/63/197
f 25/48/198 28/47/199 65/65/200 64/64/201
f 28/47/202 32/18/203 66/66/204 65/65/205
f 32/18/206 22/37/207 63/63/208 66/66/209
