# This file uses centimeters as units for non-parametric coordinates.

g default
v -0.500000 -0.315257 0.500000
v 0.500000 -0.315257 0.500000
v -0.500000 1.484694 0.500000
v 0.500000 1.484694 0.500000
v -0.500000 1.484694 -0.500000
v 0.500000 1.484694 -0.500000
v -0.500000 -0.315257 -0.500000
v 0.500000 -0.315257 -0.500000
v -0.248552 2.193909 0.248552
v 0.248552 2.193909 0.248552
v 0.248552 2.193909 -0.248552
v -0.248552 2.193909 -0.248552
v -0.369037 2.279888 0.369037
v 0.369037 2.279888 0.369037
v 0.369037 2.279888 -0.369037
v -0.369037 2.279888 -0.369037
v -0.129163 2.357605 0.129163
v 0.129163 2.357605 0.129163
v 0.129163 2.357605 -0.129163
v -0.129163 2.357605 -0.129163
v -0.129163 5.126847 0.129163
v 0.129163 5.126847 0.129163
v 0.129163 5.126847 -0.129163
v -0.129163 5.126847 -0.129163
v -0.221730 5.268619 0.221730
v 0.221730 5.268619 0.221730
v 0.221730 5.268619 -0.221730
v -0.221730 5.268619 -0.221730
v -0.663805 6.932043 0.663805
v 0.663805 6.932043 0.663805
v 0.663805 6.932043 -0.663805
v -0.663805 6.932043 -0.663805
v -0.067581 7.581279 0.067581
v 0.067581 7.581279 0.067581
v 0.067581 7.581279 -0.067581
v -0.067581 7.581279 -0.067581
v -0.067581 7.794164 0.067581
v 0.067581 7.794164 0.067581
v 0.067581 7.794164 -0.067581
v -0.067581 7.794164 -0.067581
v -0.367469 5.388930 0.491501
v -0.491501 5.388930 0.367469
v -0.404591 5.303647 0.404591
v 0.491501 5.388930 0.367469
v 0.367469 5.388930 0.491501
v 0.404591 5.303647 0.404591
v 0.367469 5.388930 -0.491501
v 0.491501 5.388930 -0.367469
v 0.404591 5.303647 -0.404591
v -0.491501 5.388930 -0.367469
v -0.367469 5.388930 -0.491501
v -0.404591 5.303647 -0.404591
v -0.530092 6.924411 0.530092
v -0.491501 6.777080 0.367469
v -0.367469 6.777080 0.491501
v 0.530092 6.924411 0.530092
v 0.367469 6.777080 0.491501
v 0.491501 6.777080 0.367469
v 0.530092 6.924411 -0.530092
v 0.491501 6.777080 -0.367469
v 0.367469 6.777080 -0.491501
v -0.530092 6.924411 -0.530092
v -0.367469 6.777080 -0.491501
v -0.491501 6.777080 -0.367469
v -0.345692 7.182942 -0.345692
v 0.345692 7.182942 -0.345692
v 0.345692 7.182942 0.345692
v -0.345692 7.182942 0.345692
v -0.375467 6.666028 0.276406
v -0.375467 6.666028 -0.276406
v -0.375467 5.499981 -0.276406
v -0.375467 5.499981 0.276406
v 0.276406 5.499981 0.375467
v 0.276406 6.666028 0.375467
v -0.276406 6.666028 0.375467
v -0.276406 5.499981 0.375467
v 0.375467 5.499981 -0.276406
v 0.375467 6.666028 -0.276406
v 0.375467 6.666028 0.276406
v 0.375467 5.499981 0.276406
v -0.276406 5.499981 -0.375467
v -0.276406 6.666028 -0.375467
v 0.276406 6.666028 -0.375467
v 0.276406 5.499981 -0.375467
v 0.491501 6.185877 0.367469
v 0.367469 6.185877 0.491501
v -0.367469 6.185877 0.491501
v -0.491501 6.185877 0.367469
v -0.491501 6.185877 -0.367469
v -0.367469 6.185877 -0.491501
v 0.367469 6.185877 -0.491501
v 0.491501 6.185877 -0.367469
v 0.375467 6.243617 -0.276406
v 0.375467 6.095217 -0.276406
v 0.375467 6.095217 0.276406
v 0.375467 6.243617 0.276406
v 0.276406 6.095217 0.375467
v 0.276406 6.243617 0.375467
v -0.276406 6.095217 0.375467
v -0.276406 6.243617 0.375467
v -0.375467 6.095218 0.276406
v -0.375467 6.243618 0.276406
v -0.375467 6.095218 -0.276406
v -0.375467 6.243618 -0.276406
v -0.276406 6.095217 -0.375467
v -0.276406 6.243617 -0.375467
v 0.276406 6.095217 -0.375467
v 0.276406 6.243617 -0.375467
vt 0.287398 0.001866
vt 0.441289 0.001866
vt 0.441289 0.278863
vt 0.287398 0.278863
vt 0.402593 0.388005
vt 0.326093 0.388005
vt 0.421135 0.401236
vt 0.307552 0.401236
vt 0.977455 0.457809
vt 0.977455 0.437311
vt 0.997954 0.437311
vt 0.997954 0.457809
vt 0.445740 0.124240
vt 0.599631 0.124240
vt 0.599631 0.401237
vt 0.445740 0.401237
vt 0.484435 0.015098
vt 0.560935 0.015098
vt 0.465894 0.001867
vt 0.579477 0.001867
vt 0.478972 0.685245
vt 0.630631 0.685245
vt 0.630631 0.836904
vt 0.478972 0.836904
vt 0.762426 0.001866
vt 0.916317 0.001866
vt 0.916317 0.278863
vt 0.762426 0.278863
vt 0.877622 0.388005
vt 0.801122 0.388005
vt 0.896163 0.401236
vt 0.782580 0.401236
vt 0.604083 0.001866
vt 0.757974 0.001866
vt 0.757974 0.278863
vt 0.604083 0.278863
vt 0.719279 0.388005
vt 0.642779 0.388005
vt 0.737820 0.401236
vt 0.624237 0.401236
vt 0.834754 0.934898
vt 0.834754 0.820134
vt 0.872052 0.857432
vt 0.872052 0.897600
vt 0.949518 0.820134
vt 0.912220 0.857432
vt 0.949518 0.934898
vt 0.912220 0.897600
vt 0.078674 0.003043
vt 0.118098 0.003043
vt 0.118098 0.425667
vt 0.078674 0.425667
vt 0.132225 0.447303
vt 0.064547 0.447303
vt 0.227241 0.003043
vt 0.266665 0.003043
vt 0.266665 0.425667
vt 0.227241 0.425667
vt 0.280792 0.447303
vt 0.213114 0.447303
vt 0.055543 0.447302
vt 0.016119 0.447302
vt 0.016119 0.024677
vt 0.055543 0.024677
vt 0.001992 0.003041
vt 0.069670 0.003041
vt 0.152957 0.003043
vt 0.192381 0.003043
vt 0.192381 0.425667
vt 0.152957 0.425667
vt 0.206508 0.447303
vt 0.138830 0.447303
vt 0.712651 0.875427
vt 0.785074 0.875427
vt 0.814938 0.905291
vt 0.682787 0.905291
vt 0.785074 0.803003
vt 0.814938 0.773139
vt 0.808876 0.919485
vt 0.688850 0.919485
vt 0.712651 0.803003
vt 0.682787 0.773139
vt 0.829132 0.779202
vt 0.829132 0.899228
vt 0.668593 0.779202
vt 0.668593 0.899228
vt 0.688850 0.758945
vt 0.808876 0.758945
vt 0.292054 0.859180
vt 0.452972 0.859180
vt 0.473267 0.879475
vt 0.271759 0.879475
vt 0.452972 0.698262
vt 0.473267 0.677967
vt 0.292054 0.698262
vt 0.271759 0.677967
vt 0.753086 0.704005
vt 0.753086 0.679496
vt 0.791688 0.679496
vt 0.791688 0.704005
vt 0.680856 0.754434
vt 0.680856 0.629066
vt 0.635361 0.812117
vt 0.635361 0.571383
vt 0.119717 0.571711
vt 0.119717 0.547202
vt 0.158320 0.547202
vt 0.158320 0.571711
vt 0.047487 0.622140
vt 0.047487 0.496772
vt 0.001992 0.679823
vt 0.001992 0.439089
vt 0.148110 0.589572
vt 0.148110 0.614081
vt 0.109508 0.614081
vt 0.109508 0.589572
vt 0.220340 0.539143
vt 0.220340 0.664511
vt 0.265835 0.481460
vt 0.265835 0.722194
vt 0.205730 0.733323
vt 0.205730 0.708814
vt 0.244332 0.708814
vt 0.244332 0.733323
vt 0.133500 0.783753
vt 0.133500 0.658385
vt 0.088005 0.841436
vt 0.088005 0.600702
vt 0.900373 0.643025
vt 0.928200 0.668235
vt 0.746787 0.668235
vt 0.774614 0.643025
vt 0.921597 0.643025
vt 0.753391 0.643025
vt 0.790197 0.624022
vt 0.884791 0.624022
vt 0.900373 0.541861
vt 0.921597 0.541861
vt 0.753391 0.541861
vt 0.774614 0.541861
vt 0.790197 0.551742
vt 0.884791 0.551742
vt 0.900373 0.405492
vt 0.921597 0.405492
vt 0.753391 0.405492
vt 0.774614 0.405492
vt 0.884791 0.424495
vt 0.884791 0.526348
vt 0.906725 0.390899
vt 0.768262 0.390899
vt 0.790197 0.424495
vt 0.790197 0.526348
vt 0.271759 0.670800
vt 0.299316 0.645834
vt 0.423855 0.645834
vt 0.451412 0.670800
vt 0.314747 0.627016
vt 0.408424 0.627016
vt 0.444873 0.645834
vt 0.299316 0.545652
vt 0.314747 0.555436
vt 0.408424 0.555436
vt 0.423855 0.545652
vt 0.444873 0.545652
vt 0.423855 0.410605
vt 0.444873 0.410605
vt 0.408424 0.429424
vt 0.408424 0.530289
vt 0.430145 0.396154
vt 0.314747 0.429424
vt 0.299316 0.410605
vt 0.314747 0.530289
vt 0.592179 0.649259
vt 0.498502 0.649259
vt 0.498502 0.548394
vt 0.592179 0.548394
vt 0.607610 0.668078
vt 0.483071 0.668078
vt 0.483071 0.533031
vt 0.607610 0.533031
vt 0.628628 0.533031
vt 0.628628 0.668078
vt 0.607610 0.432849
vt 0.628628 0.432849
vt 0.613900 0.682529
vt 0.635167 0.407883
vt 0.592179 0.451667
vt 0.592179 0.523247
vt 0.483071 0.432849
vt 0.455514 0.407883
vt 0.498502 0.451667
vt 0.498502 0.523247
vt 0.980415 0.211232
vt 0.980415 0.329030
vt 0.961817 0.314434
vt 0.961817 0.225828
vt 0.961817 0.119863
vt 0.961817 0.002065
vt 0.980415 0.016661
vt 0.980415 0.105267
vt 0.961817 0.444364
vt 0.961817 0.326566
vt 0.980415 0.341161
vt 0.980415 0.429768
vt 0.156231 0.805626
vt 0.249997 0.805626
vt 0.249997 0.906588
vt 0.156231 0.906588
vt 0.140785 0.786790
vt 0.265443 0.786790
vt 0.265443 0.921966
vt 0.140785 0.921966
vt 0.956253 0.647742
vt 0.956253 0.822157
vt 0.932015 0.795403
vt 0.932015 0.674496
vt 0.913746 0.689477
vt 0.913746 0.780422
vt 0.844253 0.689477
vt 0.834754 0.674496
vt 0.834754 0.795403
vt 0.844253 0.780422
vt 0.998008 0.097852
vt 0.998008 0.215650
vt 0.979410 0.201054
vt 0.979410 0.112447
vn 0.000000 0.000000 1.000000
vn 0.000000 0.000000 1.000000
vn 0.000000 0.067170 0.997742
vn 0.000000 0.067170 0.997742
vn 0.000000 1.000000 0.000000
vn 0.000000 1.000000 0.000000
vn 0.000000 1.000000 0.000000
vn 0.000000 1.000000 0.000000
vn 0.000000 0.067170 -0.997742
vn 0.000000 0.067170 -0.997742
vn 0.000000 0.000000 -1.000000
vn 0.000000 0.000000 -1.000000
vn 0.000000 -1.000000 0.000000
vn 0.000000 -1.000000 0.000000
vn 0.000000 -1.000000 0.000000
vn 0.000000 -1.000000 0.000000
vn 1.000000 0.000000 0.000000
vn 1.000000 0.000000 0.000000
vn 0.997742 0.067170 0.000000
vn 0.997742 0.067170 0.000000
vn -1.000000 0.000000 0.000000
vn -1.000000 0.000000 0.000000
vn -0.997742 0.067170 0.000000
vn -0.997742 0.067170 0.000000
vn 0.000000 0.334164 0.942515
vn 0.000000 0.334164 0.942515
vn 0.942515 0.334163 0.000000
vn 0.942515 0.334163 0.000000
vn 0.000000 0.334164 -0.942515
vn 0.000000 0.334164 -0.942515
vn -0.942515 0.334163 0.000000
vn -0.942515 0.334163 0.000000
vn 0.000000 -0.813997 0.580869
vn 0.000000 -0.813997 0.580869
vn 0.000000 -0.813997 0.580869
vn 0.000000 -0.813997 0.580869
vn 0.580870 -0.813997 0.000000
vn 0.580870 -0.813997 0.000000
vn 0.580870 -0.813997 0.000000
vn 0.580870 -0.813997 0.000000
vn 0.000000 -0.813997 -0.580869
vn 0.000000 -0.813997 -0.580869
vn 0.000000 -0.813997 -0.580869
vn 0.000000 -0.813997 -0.580869
vn -0.580870 -0.813997 0.000000
vn -0.580870 -0.813997 0.000000
vn -0.580870 -0.813997 0.000000
vn -0.580870 -0.813997 0.000000
vn -0.157905 0.974747 0.157905
vn 0.157905 0.974747 0.157905
vn 0.157905 0.974747 0.157905
vn -0.157905 0.974747 0.157905
vn 0.157905 0.974747 -0.157905
vn 0.157905 0.974747 -0.157905
vn -0.157905 0.974747 -0.157905
vn -0.157905 0.974747 -0.157905
vn 0.000000 0.000000 1.000000
vn 0.000000 0.000000 1.000000
vn 0.000000 0.000000 1.000000
vn 0.000000 0.000000 1.000000
vn 1.000000 0.000000 0.000000
vn 1.000000 0.000000 0.000000
vn 1.000000 0.000000 0.000000
vn 1.000000 0.000000 0.000000
vn 0.000000 0.000000 -1.000000
vn 0.000000 0.000000 -1.000000
vn 0.000000 0.000000 -1.000000
vn 0.000000 0.000000 -1.000000
vn -1.000000 0.000000 0.000000
vn -1.000000 0.000000 0.000000
vn -1.000000 0.000000 0.000000
vn -1.000000 0.000000 0.000000
vn 0.000000 -0.546712 0.837321
vn 0.000000 -0.546712 0.837321
vn 0.000000 -0.546712 0.837321
vn 0.000000 -0.546712 0.837321
vn 0.837321 -0.546712 0.000000
vn 0.837321 -0.546712 0.000000
vn 0.837321 -0.546712 0.000000
vn 0.837321 -0.546712 0.000000
vn 0.000000 -0.546712 -0.837321
vn 0.000000 -0.546712 -0.837321
vn 0.000000 -0.546712 -0.837321
vn 0.000000 -0.546712 -0.837321
vn -0.837321 -0.546712 0.000000
vn -0.837321 -0.546712 0.000000
vn -0.837321 -0.546712 0.000000
vn -0.837321 -0.546712 0.000000
vn -0.094912 -0.990951 0.094913
vn 0.094912 -0.990951 0.094913
vn 0.094912 -0.990951 0.094913
vn -0.094912 -0.990951 0.094913
vn 0.094912 -0.990951 -0.094913
vn 0.094912 -0.990951 -0.094913
vn -0.094912 -0.990951 -0.094913
vn -0.094912 -0.990951 -0.094913
vn -0.028515 -0.999187 0.028515
vn 0.028515 -0.999187 0.028515
vn 0.028515 -0.999187 0.028515
vn -0.028515 -0.999187 0.028515
vn 0.028515 -0.999187 -0.028515
vn 0.028515 -0.999187 -0.028515
vn -0.028515 -0.999187 -0.028515
vn -0.028515 -0.999187 -0.028515
vn 0.000000 0.785175 0.619273
vn 0.000000 0.785175 0.619273
vn 0.000000 0.750207 0.661203
vn 0.000000 0.750207 0.661203
vn 0.619275 0.785175 0.000000
vn 0.619275 0.785175 0.000000
vn 0.661204 0.750206 0.000000
vn 0.661204 0.750206 0.000000
vn 0.000000 0.785175 -0.619273
vn 0.000000 0.785175 -0.619273
vn 0.000000 0.750207 -0.661203
vn 0.000000 0.750207 -0.661203
vn -0.619275 0.785175 0.000000
vn -0.619275 0.785175 0.000000
vn -0.661204 0.750206 0.000000
vn -0.661204 0.750206 0.000000
vn 0.000000 0.000000 1.000000
vn 0.000000 0.000000 1.000000
vn 0.000000 0.000000 1.000000
vn 0.000000 0.000000 1.000000
vn 1.000000 0.000000 0.000000
vn 1.000000 0.000000 0.000000
vn 1.000000 0.000000 0.000000
vn 1.000000 0.000000 0.000000
vn 0.000000 0.000000 -1.000000
vn 0.000000 0.000000 -1.000000
vn 0.000000 0.000000 -1.000000
vn 0.000000 0.000000 -1.000000
vn -1.000000 0.000000 0.000000
vn -1.000000 0.000000 0.000000
vn -1.000000 0.000000 0.000000
vn -1.000000 0.000000 0.000000
vn -0.967366 -0.253385 0.000000
vn -0.967366 -0.253385 0.000000
vn -0.967366 -0.253385 0.000000
vn -0.967366 -0.253385 0.000000
vn 0.000000 -0.253384 0.967366
vn 0.000000 -0.253384 0.967366
vn 0.000000 -0.253384 0.967366
vn 0.000000 -0.253384 0.967366
vn 0.707063 -0.011093 -0.707063
vn 0.707063 -0.011093 -0.707063
vn 0.653606 -0.381580 -0.653603
vn -0.508643 -0.694670 0.508642
vn -0.508643 -0.694670 0.508642
vn -0.508643 -0.694670 0.508642
vn 0.508643 -0.694670 0.508641
vn 0.508643 -0.694670 0.508641
vn 0.508643 -0.694670 0.508641
vn -0.508643 -0.694670 -0.508641
vn -0.508643 -0.694670 -0.508641
vn -0.508643 -0.694670 -0.508641
vn 0.000000 0.572459 -0.819933
vn 0.000000 0.572459 -0.819933
vn 0.819933 0.572459 0.000000
vn 0.819933 0.572459 0.000000
vn 0.000000 0.572459 0.819933
vn 0.000000 0.572459 0.819933
vn -0.819933 0.572459 0.000000
vn -0.819933 0.572459 0.000000
vn -0.691426 -0.722447 0.000000
vn -0.691426 -0.722447 0.000000
vn -0.691426 -0.722447 0.000000
vn -0.691426 -0.722447 0.000000
vn 0.000000 -0.722446 0.691427
vn 0.000000 -0.722446 0.691427
vn 0.000000 -0.722446 0.691427
vn 0.000000 -0.722446 0.691427
vn 0.000000 0.000000 -1.000000
vn 0.000000 0.000000 -1.000000
vn 0.211635 -0.196011 -0.957492
vn -0.211635 -0.196011 -0.957492
vn 0.000000 0.000000 -1.000000
vn -0.199367 0.284474 -0.937725
vn 0.199367 0.284474 -0.937725
vn 0.000000 0.000000 -1.000000
vn -0.519937 0.528545 -0.671048
vn 0.519937 0.528545 -0.671048
vn 0.492796 -0.454612 -0.741943
vn -0.492796 -0.454612 -0.741943
vn -1.000000 0.000000 0.000000
vn -0.957492 -0.196011 -0.211635
vn -0.957492 -0.196011 0.211635
vn -1.000000 0.000000 0.000000
vn 0.000000 -0.713762 -0.700388
vn 0.000000 -0.713762 -0.700388
vn 0.000000 -0.713762 -0.700388
vn 0.000000 -0.713762 -0.700388
vn -0.707063 -0.011093 -0.707063
vn -0.707063 -0.011093 -0.707063
vn -0.653605 -0.381579 -0.653604
vn -0.741941 -0.454612 0.492800
vn -0.617371 0.000000 0.786672
vn -0.617371 0.000000 0.786672
vn 0.000000 0.722447 -0.691426
vn 0.000000 0.722447 -0.691426
vn 0.000000 0.722447 -0.691426
vn 0.000000 0.722447 -0.691426
vn -0.937725 0.284473 -0.199367
vn -1.000000 0.000000 0.000000
vn -1.000000 0.000000 0.000000
vn -0.937725 0.284473 0.199367
vn -0.617371 0.000000 0.786672
vn -0.617371 0.000000 0.786672
vn -0.671051 0.528545 0.519933
vn -0.671051 0.528545 -0.519933
vn -0.707107 -0.000000 -0.707107
vn -0.707107 -0.000000 -0.707107
vn 0.786672 -0.000000 -0.617371
vn 0.786672 -0.000000 -0.617371
vn -0.707107 0.000000 -0.707107
vn -0.707107 0.000000 -0.707107
vn 0.786672 0.000000 -0.617371
vn 0.786672 0.000000 -0.617371
vn -0.741941 -0.454612 -0.492800
vn 0.000000 0.000000 1.000000
vn 0.000000 0.000000 1.000000
vn -0.211635 -0.196011 0.957492
vn 0.211635 -0.196011 0.957492
vn -0.707063 -0.011093 0.707063
vn -0.707063 -0.011093 0.707063
vn -0.653606 -0.381580 0.653603
vn 0.492796 -0.454612 0.741943
vn 0.786672 -0.000000 0.617371
vn 0.786672 -0.000000 0.617371
vn 0.000000 0.000000 1.000000
vn 0.199367 0.284474 0.937725
vn -0.199367 0.284474 0.937725
vn 0.000000 0.000000 1.000000
vn 0.786672 0.000000 0.617371
vn 0.786672 0.000000 0.617371
vn 0.519937 0.528545 0.671048
vn -0.519937 0.528545 0.671048
vn -0.707107 0.000000 0.707107
vn -0.707107 0.000000 0.707107
vn -0.700390 -0.713760 0.000000
vn -0.700390 -0.713760 0.000000
vn -0.700390 -0.713760 0.000000
vn -0.700390 -0.713760 0.000000
vn -0.691426 0.722447 0.000000
vn -0.691426 0.722447 0.000000
vn -0.691426 0.722447 0.000000
vn -0.691426 0.722447 0.000000
vn -0.617371 0.000000 -0.786672
vn -0.617371 0.000000 -0.786672
vn -0.707107 0.000000 0.707107
vn -0.707107 0.000000 0.707107
vn -0.617371 0.000000 -0.786672
vn -0.617371 0.000000 -0.786672
vn -0.492796 -0.454612 0.741943
vn 1.000000 0.000000 0.000000
vn 1.000000 0.000000 0.000000
vn 0.957492 -0.196011 0.211635
vn 0.957492 -0.196011 -0.211635
vn 0.700390 -0.713760 0.000000
vn 0.700390 -0.713760 0.000000
vn 0.700390 -0.713760 0.000000
vn 0.700390 -0.713760 0.000000
vn 0.967366 -0.253385 0.000000
vn 0.967366 -0.253385 0.000000
vn 0.967366 -0.253384 0.000000
vn 0.967366 -0.253384 0.000000
vn 0.707063 -0.011093 0.707063
vn 0.707063 -0.011093 0.707063
vn 0.653605 -0.381579 0.653604
vn 0.617371 0.000000 0.786672
vn 0.617371 0.000000 0.786672
vn 0.741943 -0.454613 0.492797
vn 0.691429 -0.722444 0.000000
vn 0.691429 -0.722444 0.000000
vn 0.691429 -0.722444 0.000000
vn 0.691429 -0.722444 0.000000
vn 0.741943 -0.454612 -0.492797
vn 0.617371 0.000000 -0.786672
vn 0.617371 0.000000 -0.786672
vn 0.691426 0.722447 0.000000
vn 0.691426 0.722447 0.000000
vn 0.691426 0.722447 0.000000
vn 0.691426 0.722447 0.000000
vn 1.000000 0.000000 0.000000
vn 0.937725 0.284474 -0.199367
vn 0.937725 0.284474 0.199367
vn 1.000000 0.000000 0.000000
vn 0.617372 0.000000 -0.786672
vn 0.617372 0.000000 -0.786672
vn 0.671049 0.528545 -0.519936
vn 0.617372 0.000000 0.786672
vn 0.671049 0.528545 0.519936
vn 0.617372 0.000000 0.786672
vn 0.707107 0.000000 -0.707107
vn 0.707107 0.000000 -0.707107
vn 0.000000 -0.253384 -0.967366
vn 0.000000 -0.253384 -0.967366
vn 0.000000 -0.253384 -0.967366
vn 0.000000 -0.253384 -0.967366
vn 0.508643 -0.694670 -0.508642
vn 0.508643 -0.694670 -0.508642
vn 0.508643 -0.694670 -0.508642
vn 0.000000 -0.722445 -0.691428
vn 0.000000 -0.722445 -0.691428
vn 0.000000 -0.722445 -0.691428
vn 0.000000 -0.722445 -0.691428
vn -0.786672 -0.000000 -0.617371
vn -0.786672 -0.000000 -0.617371
vn -0.786672 0.000000 -0.617371
vn -0.786672 0.000000 -0.617371
vn 0.707107 0.000000 -0.707107
vn 0.707107 0.000000 -0.707107
vn 0.000000 -0.713762 0.700389
vn 0.000000 -0.713762 0.700389
vn 0.000000 -0.713762 0.700389
vn 0.000000 -0.713762 0.700389
vn 0.707107 -0.000000 0.707107
vn 0.707107 -0.000000 0.707107
vn -0.786672 -0.000000 0.617371
vn -0.786672 -0.000000 0.617371
vn 0.000000 0.722447 0.691426
vn 0.000000 0.722447 0.691426
vn 0.000000 0.722447 0.691426
vn 0.000000 0.722447 0.691426
vn 0.707107 0.000000 0.707107
vn 0.707107 0.000000 0.707107
vn -0.786672 0.000000 0.617371
vn -0.786672 0.000000 0.617371
s 1
g mdl_streetLamp
f 1/1/1 2/2/2 4/3/3 3/4/4
s off
f 37/9/5 38/10/6 39/11/7 40/12/8
s 2
f 5/13/9 6/14/10 8/15/11 7/16/12
s off
f 7/21/13 8/22/14 2/23/15 1/24/16
s 3
f 2/25/17 8/26/18 6/27/19 4/28/20
s 4
f 7/33/21 1/34/22 3/35/23 5/36/24
s 1
f 3/4/4 4/3/3 10/5/25 9/6/26
s 3
f 4/28/20 6/27/19 11/29/27 10/30/28
s 2
f 6/14/10 5/13/9 12/17/29 11/18/30
s 4
f 5/36/24 3/35/23 9/37/31 12/38/32
s off
f 9/6/33 10/5/34 14/7/35 13/8/36
f 10/30/37 11/29/38 15/31/39 14/32/40
f 11/18/41 12/17/42 16/19/43 15/20/44
f 12/38/45 9/37/46 13/39/47 16/40/48
s 5
f 13/41/49 14/42/50 18/43/51 17/44/52
f 14/42/50 15/45/53 19/46/54 18/43/51
f 15/45/53 16/47/55 20/48/56 19/46/54
f 16/47/55 13/41/49 17/44/52 20/48/56
s off
f 17/49/57 18/50/58 22/51/59 21/52/60
f 18/55/61 19/56/62 23/57/63 22/58/64
f 19/61/65 20/62/66 24/63/67 23/64/68
f 20/67/69 17/68/70 21/69/71 24/70/72
f 21/52/73 22/51/74 26/53/75 25/54/76
f 22/58/77 23/57/78 27/59/79 26/60/80
f 23/64/81 24/63/82 28/65/83 27/66/84
f 24/70/85 21/69/86 25/71/87 28/72/88
s 6
f 25/73/89 26/74/90 46/75/91 43/76/92
f 26/74/90 27/77/93 49/78/94 46/75/91
f 27/77/93 28/81/95 52/82/96 49/78/94
f 28/81/95 25/73/89 43/76/92 52/82/96
s 7
f 53/89/97 56/90/98 30/91/99 29/92/100
f 56/90/98 59/93/101 31/94/102 30/91/99
f 59/93/101 62/95/103 32/96/104 31/94/102
f 62/95/103 53/89/97 29/92/100 32/96/104
s 8
f 29/103/105 30/104/106 67/102/107 68/101/108
s 9
f 30/111/109 31/112/110 66/110/111 67/109/112
s 10
f 31/119/113 32/120/114 65/118/115 66/117/116
s 11
f 32/127/117 29/128/118 68/126/119 65/125/120
s off
f 33/97/121 34/98/122 38/99/123 37/100/124
f 34/105/125 35/106/126 39/107/127 38/108/128
f 35/113/129 36/114/130 40/115/131 39/116/132
f 36/121/133 33/122/134 37/123/135 40/124/136
f 54/129/137 53/130/138 62/131/139 64/132/140
f 53/153/141 55/154/142 57/155/143 56/156/144
s 12
f 47/177/145 48/182/146 49/185/147
s off
f 53/130/148 54/129/149 55/133/150
f 56/156/151 57/155/152 58/159/153
f 62/131/154 63/134/155 64/132/156
s 10
f 66/117/116 65/118/115 36/114/157 35/113/158
s 9
f 67/109/112 66/110/111 35/106/159 34/105/160
s 8
f 68/101/108 67/102/107 34/98/161 33/97/162
s 11
f 65/125/120 68/126/119 33/122/163 36/121/164
s off
f 54/129/165 64/132/166 70/135/167 69/136/168
f 57/155/169 55/154/170 75/157/171 74/158/172
s 13
f 84/173/173 81/174/174 105/175/175 107/176/176
s 14
f 83/187/177 108/188/178 106/192/179 82/191/180
f 91/193/181 90/194/182 106/195/179 108/196/178
s 13
f 90/179/183 91/180/184 107/176/176 105/175/175
s 15
f 72/147/185 101/148/186 103/152/187 71/151/188
s off
f 51/87/189 47/88/190 49/78/191 52/82/192
s 16
f 50/146/193 51/145/194 52/150/195
s 15
f 89/140/196 50/146/197 71/151/198 103/152/187
s off
f 84/173/199 47/177/200 51/178/201 81/174/202
s 17
f 102/142/203 69/136/204 70/135/205 104/141/206
f 70/135/207 64/132/208 89/140/209 104/141/206
f 89/197/209 88/198/210 102/199/203 104/200/206
s 16
f 89/140/211 90/139/212 51/145/194 50/146/193
s 13
f 81/174/213 51/178/214 90/179/183 105/175/175
s 16
f 64/132/215 63/134/216 90/139/212 89/140/211
s 14
f 82/191/217 106/192/179 90/179/182 63/189/218
s 15
f 88/137/219 89/140/196 103/152/187 101/148/186
s 18
f 76/170/220 73/167/221 97/168/222 99/172/223
s 19
f 41/144/224 42/143/225 43/149/226
s 18
f 87/160/227 41/171/228 76/170/229 99/172/223
s 20
f 75/157/230 100/161/231 98/162/232 74/158/233
f 75/157/234 55/154/235 87/160/236 100/161/231
f 87/201/236 86/202/237 98/203/232 100/204/231
s 19
f 87/138/238 88/137/239 42/143/225 41/144/224
s off
f 50/85/240 52/82/241 43/76/242 42/86/243
f 72/147/244 71/151/245 50/146/246 42/143/247
s 15
f 72/147/248 42/143/249 88/137/219 101/148/186
s 19
f 55/133/250 54/129/251 88/137/239 87/138/238
s 17
f 69/136/252 102/142/203 88/137/210 54/129/253
s 18
f 86/163/254 87/160/227 99/172/223 97/168/222
s 21
f 80/205/255 77/206/256 94/207/257 95/208/258
s off
f 48/83/259 44/84/260 46/75/261 49/78/262
f 59/213/263 56/214/264 58/215/265 60/216/266
s 22
f 44/166/267 45/165/268 46/169/269
s 21
f 77/206/270 48/210/271 92/211/272 94/207/257
s off
f 78/217/273 60/216/274 58/215/275 79/218/276
s 21
f 85/212/277 44/209/278 80/205/279 95/208/258
s off
f 80/205/280 44/209/281 48/210/282 77/206/283
s 23
f 79/218/284 96/222/285 93/219/286 78/217/287
f 79/218/288 58/215/289 85/221/290 96/222/285
f 78/217/291 93/219/286 92/220/292 60/216/293
f 85/223/290 92/224/292 93/225/286 96/226/285
s 12
f 91/180/294 92/181/295 48/182/146 47/177/145
s off
f 63/189/296 62/190/297 59/186/298 61/183/299
f 59/186/300 60/184/301 61/183/302
f 83/187/303 82/191/304 63/189/305 61/183/306
s 13
f 91/180/184 47/177/307 84/173/308 107/176/176
s 14
f 83/187/309 61/183/310 91/180/181 108/188/178
s 12
f 61/183/311 60/184/312 92/181/295 91/180/294
s off
f 46/75/313 45/79/314 41/80/315 43/76/316
s 22
f 85/164/317 86/163/318 45/165/268 44/166/267
s 18
f 73/167/319 45/165/320 86/163/254 97/168/222
s off
f 73/167/321 76/170/322 41/171/323 45/165/324
s 22
f 58/159/325 57/155/326 86/163/318 85/164/317
s 20
f 74/158/327 98/162/232 86/163/237 57/155/328
s 21
f 92/211/272 85/212/277 95/208/258 94/207/257
