# This file uses centimeters as units for non-parametric coordinates.

g default
v -0.500000 -0.634191 0.978690
v 0.500000 -0.634191 0.978690
v -0.500000 -0.634191 -1.021310
v 0.500000 -0.634191 -1.021310
v -0.500000 -1.634191 -0.021310
v 0.500000 -1.634191 -0.021310
v 1.500000 -0.634191 -0.021310
v -1.500000 -0.634191 -0.021310
v -1.500000 0.365809 -0.021310
v 1.500000 0.365809 -0.021310
v -1.500000 0.317698 1.354748
v -0.500000 0.317698 1.354748
v -1.500000 0.317699 -1.397369
v -0.500000 0.317699 -1.397369
v 0.500000 0.317698 1.354748
v 1.500000 0.317698 1.354748
v 0.500000 0.317699 -1.397369
v 1.500000 0.317699 -1.397369
v -1.453997 -1.588188 0.978690
v -1.500000 -1.588188 0.932686
v -1.453997 -1.634191 0.932686
v -0.500000 -1.634191 0.932686
v -0.500000 -1.588188 0.978690
v 0.500000 -1.634191 0.932686
v 0.500000 -1.588188 0.978690
v 1.500000 -1.588188 0.932686
v 1.453997 -1.588188 0.978690
v 1.453997 -1.634191 0.932686
v -1.500000 -1.588188 -0.975307
v -1.453997 -1.588187 -1.021310
v -1.453997 -1.634191 -0.975307
v -0.500000 -1.634191 -0.975307
v -0.500000 -1.588187 -1.021310
v 0.500000 -1.588187 -1.021310
v 0.500000 -1.634191 -0.975307
v 1.453997 -1.588187 -1.021310
v 1.500000 -1.588188 -0.975307
v 1.453997 -1.634191 -0.975307
v -1.500000 -1.588188 -0.021310
v -1.453997 -1.634191 -0.021310
v 1.500000 -1.588188 -0.021310
v 1.453997 -1.634191 -0.021310
v -1.528360 0.337435 1.006321
v -1.500000 0.365809 0.927282
v -1.453997 0.319806 0.978690
v -0.500000 0.332852 1.010785
v -0.500000 0.319806 0.978690
v -1.528680 0.340658 -1.051221
v -1.453997 0.319806 -1.021310
v -1.500000 0.365809 -0.969903
v -0.500000 0.336203 -1.056520
v -0.500000 0.319806 -1.021310
v -1.453997 -0.634191 -1.021310
v -1.500000 -0.634191 -0.975307
v -1.500000 -0.634191 0.932686
v -1.453997 -0.634191 0.978690
v -1.546003 1.370885 -0.021310
v -1.500000 1.324882 -0.021310
v 1.500000 -0.634191 0.932686
v 1.453997 -0.634191 0.978690
v 1.528360 0.337435 1.006321
v 1.453997 0.319806 0.978690
v 1.500000 0.365809 0.927282
v 0.500000 0.332852 1.010785
v 0.500000 0.319806 0.978690
v 1.546003 1.370885 -0.021310
v 1.500000 1.324882 -0.021310
v 1.528680 0.340658 -1.051221
v 1.500000 0.365809 -0.969903
v 1.453997 0.319806 -1.021310
v 0.500000 0.336203 -1.056520
v 0.500000 0.319806 -1.021310
v 1.500000 -0.634191 -0.975307
v 1.453997 -0.634191 -1.021310
v -1.893913 0.003319 1.395933
v -1.865573 0.000055 1.334893
v -1.847910 1.370885 -0.021310
v -1.893914 1.416896 -0.021310
v -1.855406 0.162175 1.527359
v -1.893913 0.113688 1.512615
v -1.893913 1.610773 -0.021310
v -0.500000 0.003314 1.395927
v -0.500000 0.004658 1.330410
v -0.500000 0.176118 1.511884
v -0.500000 0.113712 1.512640
v -1.865274 0.045483 -1.402267
v -1.893913 0.057495 -1.459701
v -1.893913 0.131717 -1.514808
v -1.853041 0.184331 -1.527360
v -0.500000 0.049974 -1.396925
v -0.500000 0.057304 -1.459559
v -0.500000 0.131955 -1.514986
v -0.500000 0.201835 -1.510300
v 0.500000 0.003314 1.395927
v 0.500000 0.004658 1.330410
v 0.500000 0.176118 1.511884
v 0.500000 0.113712 1.512640
v 1.893913 0.003319 1.395933
v 1.865573 0.000055 1.334893
v 1.855406 0.162175 1.527359
v 1.893913 0.113688 1.512615
v 1.893914 1.416896 -0.021310
v 1.847910 1.370885 -0.021310
v 1.893913 1.610773 -0.021310
v 0.500000 0.049974 -1.396925
v 0.500000 0.057304 -1.459559
v 0.500000 0.131955 -1.514986
v 0.500000 0.201835 -1.510300
v 1.893913 0.057495 -1.459701
v 1.865274 0.045483 -1.402267
v 1.853041 0.184331 -1.527360
v 1.893913 0.131717 -1.514808
v -1.500000 1.634093 0.002000
v -1.500000 1.634093 -0.044621
v -0.500000 1.634092 -0.044621
v -0.500000 1.634092 0.002000
v 0.500000 1.634092 -0.044621
v 0.500000 1.634092 0.002000
v 1.500000 1.634093 -0.044621
v 1.500000 1.634093 0.002000
v -1.870909 1.633777 -0.021310
v -1.848023 1.634190 0.002094
v -1.847989 1.634039 -0.044568
v 1.870909 1.633777 -0.021310
v 1.847989 1.634039 -0.044568
v 1.848023 1.634190 0.002094
vt -513.884949 0.375000
vt -513.884949 -514.009949
vt -513.884949 514.759949
vt 0.384647 0.305806
vt 0.252112 0.305806
vt -513.884949 -514.009949
vt 0.252112 0.043470
vt -170.961609 514.759949
vt -513.884827 514.759949
vt 171.961731 514.759949
vt -170.961487 -514.009949
vt 0.384647 0.043470
vt 171.961731 -514.009949
vt 514.884949 -514.009949
vt 514.884949 -514.009827
vt 514.884949 514.759949
vt 514.884949 0.375000
vt 514.884949 514.759949
vt 0.252112 0.576934
vt 0.252112 0.311985
vt 0.384647 0.311985
vt 0.384647 0.576934
vt 0.517182 0.305806
vt 0.517182 0.043470
vt 0.649717 0.305806
vt 0.649717 0.043470
vt 0.517182 0.311985
vt 0.517182 0.576934
vt 0.649717 0.311985
vt 0.649717 0.576934
vt 0.199905 0.308896
vt 0.199905 0.035487
vt 0.199905 0.012870
vt 0.199905 0.308896
vt 0.384647 0.035488
vt -170.961609 -514.009949
vt 0.384647 0.012865
vt 0.199905 0.589016
vt -513.884949 0.375123
vt 0.199905 0.599698
vt 0.384647 0.588989
vt 0.384647 0.599732
vt 0.517182 0.035488
vt 0.517182 0.012865
vt 171.961731 -514.009949
vt 0.701924 0.035487
vt 0.701924 0.012870
vt 0.701924 0.308896
vt 0.701924 0.308896
vt 0.517182 0.588989
vt 0.517182 0.599732
vt 0.701924 0.589016
vt -170.961609 514.759949
vt 0.701924 0.599698
vt 0.205987 0.305794
vt 0.205008 0.010012
vt 0.384647 0.013011
vt 0.205991 0.311978
vt 0.205322 0.602131
vt 0.384647 0.598824
vt 0.517182 0.013011
vt 0.696821 0.010012
vt 0.695842 0.305794
vt 514.884949 0.374877
vt 0.517182 0.598824
vt 0.695838 0.311978
vt 171.961731 514.759949
vt 0.696507 0.602131
vt 0.203661 0.047319
vt 0.384647 0.048188
vt 0.206002 0.308896
vt 0.203701 0.577883
vt 0.202954 0.308896
vt 0.517182 0.048188
vt 0.384647 0.576848
vt 0.517182 0.576848
vt 0.698168 0.047319
vt 0.695827 0.308896
vt 0.698876 0.308896
vt 0.698129 0.577883
vt 0.102965 0.146118
vt 0.095821 0.152511
vt 0.091664 0.142132
vt 0.095821 0.285086
vt 0.090928 0.285086
vt 0.102965 0.563023
vt 0.095821 0.424054
vt 0.090928 0.424054
vt 0.091664 0.567008
vt 0.095821 0.556630
vt 0.116526 0.148302
vt 0.127392 0.144403
vt 0.123593 0.154626
vt 0.128006 0.285772
vt 0.123593 0.285772
vt 0.116526 0.560711
vt 0.128006 0.423241
vt 0.123593 0.423241
vt 0.824154 0.026220
vt 0.894248 0.025797
vt 0.894653 0.092666
vt 0.824558 0.093090
vt 0.824135 0.022996
vt 0.894229 0.022572
vt 0.961118 0.025392
vt 0.961523 0.092262
vt 0.895057 0.159536
vt 0.824963 0.159960
vt 0.757689 0.093495
vt 0.757284 0.026625
vt 0.757265 0.023400
vt 0.961099 0.022168
vt 0.964343 0.025373
vt 0.964747 0.092243
vt 0.961927 0.159132
vt 0.758093 0.160364
vt 0.754060 0.026644
vt 0.754464 0.093514
vt 0.965171 0.162337
vt 0.754888 0.163608
vt 0.864119 0.573821
vt 0.738535 0.573821
vt 0.738535 0.448237
vt 0.864119 0.448237
vt 0.738535 0.579877
vt 0.864119 0.579877
vt 0.732479 0.573821
vt 0.732479 0.448237
vt 0.738535 0.316597
vt 0.864119 0.316597
vt 0.989703 0.448237
vt 0.989703 0.573821
vt 0.989703 0.579877
vt 0.732479 0.316597
vt 0.738535 0.191013
vt 0.864119 0.191013
vt 0.989703 0.316597
vt 0.732479 0.191013
vt 0.738535 0.184957
vt 0.864119 0.184957
vt 0.989703 0.191013
vt 0.989703 0.184957
vt 0.400438 0.799995
vt 0.395976 0.924968
vt 0.271002 0.920506
vt 0.275464 0.795533
vt 0.401787 0.931210
vt 0.406464 0.800210
vt 0.140002 0.915829
vt 0.144464 0.790855
vt 0.279926 0.670559
vt 0.404900 0.675021
vt 0.410926 0.675236
vt 0.015029 0.911367
vt 0.019491 0.786394
vt 0.148926 0.665882
vt 0.008787 0.917178
vt 0.013464 0.786178
vt 0.023953 0.661420
vt 0.017926 0.661205
vt 0.725545 0.721754
vt 0.725545 0.596922
vt 0.850377 0.596922
vt 0.850377 0.721754
vt 0.975208 0.596922
vt 0.975208 0.721753
vt 0.726252 0.852605
vt 0.850377 0.852605
vt 0.974501 0.852605
vt 0.850377 0.978101
vt 0.715611 0.849314
vt 0.850377 0.984120
vt 0.984844 0.848892
vt 0.545891 0.734493
vt 0.545891 0.609662
vt 0.670722 0.609662
vt 0.670722 0.734493
vt 0.421059 0.734493
vt 0.421059 0.609662
vt 0.670015 0.865345
vt 0.545891 0.865345
vt 0.421766 0.865345
vt 0.545891 0.990841
vt 0.545891 0.996860
vt 0.680656 0.862054
vt 0.411423 0.861632
vt 0.127392 0.564609
vt 0.123593 0.554387
vn 0.000000 0.000000 1.000000
vn 0.000000 0.000000 1.000000
vn 0.000000 0.000000 1.000000
vn 0.000000 0.000000 1.000000
vn 0.000000 -1.000000 0.000000
vn 0.000000 -1.000000 0.000000
vn 0.000000 -1.000000 0.000000
vn 0.000000 -1.000000 0.000000
vn 0.000000 -1.000000 0.000000
vn 0.000000 -1.000000 0.000000
vn 0.000000 -1.000000 0.000000
vn 0.000000 -1.000000 0.000000
vn 0.000000 -1.000000 0.000000
vn 0.000000 -1.000000 0.000000
vn 0.000000 -1.000000 0.000000
vn 0.000000 -1.000000 0.000000
vn 0.000000 0.000000 1.000000
vn 0.000000 0.000000 1.000000
vn 0.000000 0.000000 1.000000
vn 0.000000 0.000000 1.000000
vn 0.000000 0.716671 0.697411
vn 0.003304 0.717078 0.696985
vn 0.003579 0.720563 0.693380
vn 0.000000 0.719635 0.694352
vn -0.001971 0.714408 -0.699726
vn -0.001830 0.716442 -0.697644
vn 0.000000 0.716671 -0.697411
vn 0.000000 0.715046 -0.699077
vn 0.000000 0.000000 -1.000000
vn 0.000000 0.000000 -1.000000
vn 0.000000 0.000000 -1.000000
vn 0.000000 0.000000 -1.000000
vn 0.000000 0.000000 -1.000000
vn 0.000000 0.000000 -1.000000
vn -1.000000 0.000000 0.000000
vn -1.000000 0.000000 0.000000
vn -1.000000 0.000000 0.000000
vn -1.000000 0.000000 0.000000
vn -1.000000 0.000000 0.000000
vn -1.000000 0.000000 0.000000
vn -1.000000 0.000000 0.000000
vn -1.000000 0.000000 0.000000
vn -1.000000 0.000000 0.000000
vn -1.000000 0.000000 0.000000
vn 0.000000 0.000000 1.000000
vn 0.000000 0.000000 1.000000
vn 0.000000 0.000000 1.000000
vn 0.000000 0.000000 1.000000
vn -0.000000 0.716671 0.697411
vn -0.000000 0.719635 0.694352
vn -0.003304 0.717078 0.696985
vn -0.003579 0.720563 0.693380
vn -0.000000 0.716671 -0.697411
vn -0.000000 0.715046 -0.699077
vn 0.001830 0.716442 -0.697644
vn 0.001971 0.714408 -0.699726
vn 0.000000 0.000000 -1.000000
vn 0.000000 0.000000 -1.000000
vn 0.000000 0.000000 -1.000000
vn 0.000000 0.000000 -1.000000
vn 0.000000 0.000000 -1.000000
vn 0.000000 0.000000 -1.000000
vn 1.000000 0.000000 0.000000
vn 1.000000 0.000000 0.000000
vn 1.000000 0.000000 0.000000
vn 1.000000 0.000000 0.000000
vn 1.000000 0.000000 0.000000
vn 1.000000 0.000000 0.000000
vn 1.000000 0.000000 0.000000
vn 1.000000 0.000000 0.000000
vn 1.000000 0.000000 0.000000
vn 1.000000 0.000000 0.000000
vn -1.000000 0.000002 0.000000
vn -0.815160 -0.420807 0.398041
vn -0.802827 -0.433139 0.409706
vn -1.000000 0.000002 0.000000
vn 0.000000 -0.726487 0.687180
vn 0.000000 -0.726487 0.687180
vn -0.860022 -0.304174 -0.409683
vn -0.893311 -0.267920 -0.360854
vn 0.000000 -0.596123 -0.802894
vn 0.000000 -0.596123 -0.802894
vn 0.000000 -0.726487 0.687180
vn 0.000000 -0.726487 0.687180
vn 0.815160 -0.420807 0.398041
vn 0.802827 -0.433139 0.409706
vn 1.000000 0.000002 0.000000
vn 1.000000 0.000002 0.000000
vn 0.000000 -0.596123 -0.802893
vn 0.000000 -0.596123 -0.802894
vn 0.860022 -0.304173 -0.409683
vn 0.893311 -0.267919 -0.360854
vn -0.032960 -0.999399 -0.010691
vn 0.003481 -0.701065 -0.713089
vn 0.002552 -0.700167 -0.713974
vn -0.032962 -0.999400 -0.010651
vn 0.012158 0.718130 0.695803
vn 0.010049 0.722509 0.691288
vn -0.000000 -0.697692 -0.716398
vn -0.000000 -0.697692 -0.716398
vn -0.000000 0.742923 0.669377
vn -0.028413 -0.739021 0.673083
vn -0.021486 -0.745616 0.666029
vn -0.006808 0.715806 -0.698266
vn -0.006047 0.713837 -0.700286
vn -0.000000 -0.765385 0.643572
vn -0.000000 -0.765385 0.643572
vn 0.000000 0.697985 -0.716113
vn 0.000000 -0.697692 -0.716398
vn 0.000000 -0.697692 -0.716398
vn 0.000000 0.742923 0.669377
vn -0.003481 -0.701065 -0.713089
vn -0.002552 -0.700167 -0.713974
vn -0.010049 0.722509 0.691288
vn 0.032960 -0.999399 -0.010691
vn 0.032962 -0.999400 -0.010651
vn -0.012158 0.718130 0.695803
vn 0.000000 -0.765385 0.643572
vn 0.000000 -0.765385 0.643572
vn 0.000000 0.697985 -0.716113
vn 0.028413 -0.739021 0.673083
vn 0.021486 -0.745616 0.666029
vn 0.006808 0.715806 -0.698266
vn 0.006047 0.713837 -0.700286
vn -0.707107 0.000000 0.707107
vn -0.707107 0.000000 0.707107
vn -0.717146 0.000975 0.696923
vn -0.717157 0.000976 0.696911
vn -0.707108 -0.707106 0.000000
vn -0.707108 -0.707106 0.000000
vn -0.707108 -0.707106 0.000000
vn -0.707108 -0.707106 0.000000
vn 0.000000 -0.707106 0.707108
vn 0.000000 -0.707106 0.707108
vn 0.000000 -0.707106 0.707108
vn 0.000000 -0.707106 0.707108
vn 0.000000 -0.707106 0.707108
vn 0.000000 -0.707106 0.707108
vn 0.000000 -0.707106 0.707108
vn 0.000000 -0.707106 0.707108
vn 0.707107 0.000000 0.707107
vn 0.707107 0.000000 0.707107
vn 0.717157 0.000976 0.696911
vn 0.717145 0.000975 0.696923
vn 0.707108 -0.707106 0.000000
vn 0.707108 -0.707106 0.000000
vn 0.707108 -0.707106 0.000000
vn 0.707108 -0.707106 0.000000
vn -0.707107 0.000000 -0.707107
vn -0.707107 0.000000 -0.707107
vn -0.717157 0.000976 -0.696911
vn -0.717146 0.000975 -0.696923
vn 0.000000 -0.707104 -0.707110
vn 0.000000 -0.707104 -0.707110
vn 0.000000 -0.707104 -0.707110
vn 0.000000 -0.707104 -0.707110
vn -0.707108 -0.707106 0.000000
vn -0.707108 -0.707106 0.000000
vn 0.000000 -0.707104 -0.707110
vn 0.000000 -0.707104 -0.707110
vn 0.000000 -0.707104 -0.707110
vn 0.000000 -0.707104 -0.707110
vn 0.707107 0.000000 -0.707107
vn 0.707107 0.000000 -0.707107
vn 0.717146 0.000975 -0.696923
vn 0.717157 0.000976 -0.696911
vn 0.707108 -0.707106 0.000000
vn 0.707108 -0.707106 0.000000
vn -0.672302 -0.527559 -0.519317
vn -0.657433 -0.548412 -0.516746
vn -0.676354 -0.521704 -0.519971
vn -0.676354 -0.521704 -0.519971
vn -0.726535 0.001900 0.687127
vn -0.726535 0.001900 0.687127
vn -0.003082 -0.891082 0.453833
vn -0.003082 -0.891082 0.453833
vn -0.001512 -0.909903 0.414819
vn -0.001511 -0.909916 0.414790
vn 0.001512 -0.909903 0.414819
vn 0.001511 -0.909916 0.414790
vn -0.003274 -0.869640 -0.493675
vn -0.003274 -0.869640 -0.493675
vn -0.001602 -0.889211 -0.457495
vn -0.001604 -0.889194 -0.457527
vn -0.726535 0.001900 -0.687127
vn -0.726535 0.001900 -0.687127
vn -0.678332 -0.535842 0.502731
vn -0.690741 -0.516516 0.506051
vn -0.694591 -0.510341 0.507045
vn -0.694591 -0.510341 0.507045
vn 0.001602 -0.889211 -0.457495
vn 0.001604 -0.889194 -0.457527
vn 0.726535 0.001900 0.687127
vn 0.726535 0.001900 0.687127
vn 0.003082 -0.891082 0.453833
vn 0.003082 -0.891082 0.453833
vn 0.657433 -0.548412 -0.516746
vn 0.672302 -0.527560 -0.519318
vn 0.676354 -0.521705 -0.519971
vn 0.676354 -0.521705 -0.519971
vn 0.694591 -0.510341 0.507045
vn 0.694591 -0.510341 0.507045
vn 0.690741 -0.516517 0.506051
vn 0.678332 -0.535842 0.502731
vn 0.726535 0.001900 -0.687127
vn 0.726535 0.001900 -0.687127
vn 0.003274 -0.869640 -0.493675
vn 0.003274 -0.869640 -0.493675
vn 0.001691 -0.999878 0.015546
vn 0.001691 -0.999878 0.015546
vn 0.000965 -1.000000 0.000065
vn 0.000966 -1.000000 0.000084
vn -0.724126 -0.484395 -0.490921
vn -0.724126 -0.484395 -0.490922
vn -0.724126 -0.484395 -0.490922
vn -0.724126 -0.484395 -0.490922
vn -0.737997 -0.486400 0.467734
vn -0.737997 -0.486400 0.467734
vn -0.737997 -0.486400 0.467734
vn -0.737997 -0.486400 0.467734
vn 0.006220 -0.127272 0.991848
vn 0.006220 -0.127272 0.991848
vn 0.003438 -0.064902 0.997886
vn 0.003428 -0.064671 0.997901
vn -0.679343 0.527413 0.510225
vn -0.679343 0.527413 0.510225
vn -0.679343 0.527413 0.510225
vn -0.679343 0.527413 0.510225
vn -0.679343 0.527413 0.510225
vn -0.673871 0.527213 -0.517633
vn -0.673871 0.527213 -0.517633
vn -0.673871 0.527213 -0.517633
vn -0.673871 0.527213 -0.517633
vn -0.673871 0.527213 -0.517633
vn -0.000965 -1.000000 0.000065
vn -0.000966 -1.000000 0.000084
vn -0.003438 -0.064902 0.997886
vn -0.003428 -0.064671 0.997901
vn 0.001855 -0.987202 -0.159466
vn 0.001855 -0.987202 -0.159466
vn 0.001059 -0.990018 -0.140939
vn 0.001058 -0.990021 -0.140915
vn 0.006560 -0.066261 -0.997781
vn 0.006560 -0.066261 -0.997781
vn 0.003574 -0.005485 -0.999979
vn 0.003588 -0.005779 -0.999977
vn -0.001059 -0.990018 -0.140939
vn -0.001058 -0.990021 -0.140915
vn -0.003574 -0.005485 -0.999979
vn -0.003588 -0.005779 -0.999977
vn -0.001691 -0.999878 0.015546
vn -0.001691 -0.999878 0.015546
vn -0.006220 -0.127272 0.991848
vn -0.006220 -0.127272 0.991848
vn 0.724126 -0.484395 -0.490922
vn 0.724126 -0.484395 -0.490921
vn 0.724126 -0.484395 -0.490922
vn 0.724126 -0.484395 -0.490922
vn 0.679343 0.527413 0.510225
vn 0.679343 0.527413 0.510225
vn 0.679343 0.527413 0.510225
vn 0.679343 0.527413 0.510225
vn 0.679343 0.527413 0.510225
vn 0.737997 -0.486400 0.467734
vn 0.737997 -0.486400 0.467734
vn 0.737997 -0.486400 0.467734
vn 0.737997 -0.486400 0.467734
vn -0.001855 -0.987202 -0.159466
vn -0.001855 -0.987202 -0.159466
vn -0.006560 -0.066261 -0.997781
vn -0.006560 -0.066261 -0.997781
vn -0.577352 -0.577350 0.577350
vn -0.577352 -0.577350 0.577350
vn -0.577352 -0.577350 0.577350
vn 0.577352 -0.577350 0.577350
vn 0.577352 -0.577350 0.577350
vn 0.577352 -0.577350 0.577350
vn -0.577350 -0.577348 -0.577352
vn -0.577350 -0.577348 -0.577352
vn -0.577350 -0.577348 -0.577352
vn 0.577350 -0.577348 -0.577352
vn 0.577350 -0.577348 -0.577352
vn 0.577350 -0.577348 -0.577352
vn -0.355571 -0.831824 -0.426189
vn -0.390375 -0.831662 0.394900
vn 0.355571 -0.831824 -0.426189
vn 0.390375 -0.831662 0.394899
vn 0.673871 0.527213 -0.517633
vn 0.673871 0.527213 -0.517633
vn 0.673871 0.527213 -0.517633
vn 0.673871 0.527213 -0.517633
vn 0.673871 0.527213 -0.517633
vn 0.000016 1.000000 -0.000420
vn 0.000016 1.000000 -0.000420
vn -0.000176 0.999999 -0.001653
vn -0.000175 0.999999 -0.001653
vn 0.000000 1.000000 0.000000
vn 0.000000 1.000000 0.000000
vn -0.000000 1.000000 0.000000
vn -0.000000 1.000000 0.000000
vn -0.000016 1.000000 -0.000420
vn -0.000016 1.000000 -0.000420
vn 0.000175 0.999999 -0.001653
vn 0.000176 0.999999 -0.001653
vn -0.014702 0.999887 -0.003255
vn 0.014702 0.999887 -0.003255
s 1
g mdl_house
f 23/99/1 25/100/2 2/101/3 1/102/4
s 2
f 40/121/5 31/122/6 32/123/7 5/124/8
f 32/123/7 35/129/9 6/130/10 5/124/8
f 35/129/9 38/135/11 42/136/12 6/130/10
f 22/131/13 21/132/14 40/121/5 5/124/8
f 5/124/8 6/130/10 24/137/15 22/131/13
f 6/130/10 42/136/12 28/141/16 24/137/15
s 1
f 56/109/17 19/110/18 23/99/1 1/102/4
f 47/108/19 45/116/20 56/109/17 1/102/4
s 3
f 116/4/21 113/5/22 11/7/23 12/12/24
s 4
f 13/19/25 114/20/26 115/21/27 14/22/28
s 5
f 53/143/29 49/144/30 52/145/31 3/146/32
f 33/151/33 30/152/34 53/143/29 3/146/32
s 6
f 54/161/35 29/162/36 39/163/37 8/164/38
f 8/164/38 39/163/37 20/165/39 55/166/40
f 50/167/41 54/161/35 8/164/38 9/168/42
f 8/164/38 55/166/40 44/169/43 9/168/42
f 58/170/44 50/167/41 9/168/42
f 9/168/42 44/169/43 58/170/44
s 1
f 2/101/3 25/100/2 27/105/45 60/106/46
f 65/107/47 47/108/19 1/102/4 2/101/3
f 60/106/46 62/115/48 65/107/47 2/101/3
s 3
f 118/23/49 116/4/21 12/12/24 15/24/50
f 120/25/51 118/23/49 15/24/50 16/26/52
s 4
f 14/22/28 115/21/27 117/27/53 17/28/54
f 17/28/54 117/27/53 119/29/55 18/30/56
s 5
f 3/146/32 52/145/31 72/149/57 4/150/58
f 4/150/58 72/149/57 70/154/59 74/155/60
f 34/156/61 33/151/33 3/146/32 4/150/58
f 74/155/60 36/159/62 34/156/61 4/150/58
s 7
f 7/174/63 41/175/64 37/176/65 73/177/66
f 59/178/67 26/179/68 41/175/64 7/174/63
f 7/174/63 73/177/66 69/180/69 10/181/70
f 63/182/71 59/178/67 7/174/63 10/181/70
f 10/181/70 69/180/69 67/183/72
f 67/183/72 63/182/71 10/181/70
s 8
f 78/31/73 75/32/74 80/33/75 81/34/76
f 75/32/74 82/35/77 85/37/78 80/33/75
f 87/38/79 78/31/73 81/34/76 88/40/80
f 91/41/81 87/38/79 88/40/80 92/42/82
f 82/35/77 94/43/83 97/44/84 85/37/78
f 94/43/83 98/46/85 101/47/86 97/44/84
f 98/46/85 102/48/87 104/49/88 101/47/86
f 106/50/89 91/41/81 92/42/82 107/51/90
f 102/48/87 109/52/91 112/54/92 104/49/88
f 109/52/91 106/50/89 107/51/90 112/54/92
s 9
f 57/1/93 43/6/94 76/2/95 77/39/96
s 3
f 11/7/23 113/5/22 122/55/97 79/56/98
s 9
f 43/6/94 46/11/99 83/36/100 76/2/95
s 3
f 12/12/24 11/7/23 79/56/98 84/57/101
s 9
f 48/3/102 57/1/93 77/39/96 86/9/103
s 4
f 123/58/104 114/20/26 13/19/25 89/59/105
s 9
f 51/8/106 48/3/102 86/9/103 90/53/107
s 4
f 13/19/25 14/22/28 93/60/108 89/59/105
s 9
f 46/11/99 64/13/109 95/45/110 83/36/100
s 3
f 15/24/50 12/12/24 84/57/101 96/61/111
s 9
f 64/13/109 61/15/112 99/14/113 95/45/110
s 3
f 16/26/52 15/24/50 96/61/111 100/62/114
s 9
f 61/15/112 66/17/115 103/64/116 99/14/113
s 3
f 126/63/117 120/25/51 16/26/52 100/62/114
s 9
f 71/10/118 51/8/106 90/53/107 105/67/119
s 4
f 14/22/28 17/28/54 108/65/120 93/60/108
s 9
f 66/17/115 68/16/121 110/18/122 103/64/116
s 4
f 18/30/56 119/29/55 125/66/123 111/68/124
s 9
f 68/16/121 71/10/118 105/67/119 110/18/122
s 4
f 17/28/54 18/30/56 111/68/124 108/65/120
s 10
f 20/117/125 19/110/126 56/109/127 55/118/128
s 11
f 21/132/129 20/133/130 39/126/131 40/121/132
s 12
f 19/110/133 21/111/134 22/103/135 23/99/136
f 23/99/136 22/103/135 24/104/137 25/100/138
f 25/100/138 24/104/137 28/112/139 27/105/140
s 13
f 27/105/141 26/113/142 59/114/143 60/106/144
s 14
f 26/142/145 28/141/146 42/136/147 41/140/148
s 15
f 30/152/149 29/153/150 54/148/151 53/143/152
s 16
f 31/122/153 30/127/154 33/128/155 32/123/156
s 11
f 29/125/157 31/122/158 40/121/132 39/126/131
s 16
f 32/123/156 33/128/155 34/134/159 35/129/160
f 35/129/160 34/134/159 36/138/161 38/135/162
s 17
f 37/160/163 36/159/164 74/155/165 73/158/166
s 14
f 38/135/167 37/139/168 41/140/148 42/136/147
s 18
f 44/169/169 43/173/170 57/172/171 58/170/172
s 10
f 45/116/173 44/120/174 55/118/128 56/109/127
s 19
f 43/187/175 45/188/176 47/98/177 46/97/178
f 46/97/178 47/98/177 65/95/179 64/94/180
s 20
f 49/90/181 48/89/182 51/88/183 52/87/184
s 15
f 50/147/185 49/144/186 53/143/152 54/148/151
s 21
f 48/171/187 50/167/188 58/170/189 57/172/190
s 20
f 52/87/184 51/88/183 71/85/191 72/84/192
s 13
f 60/106/144 59/114/143 63/119/193 62/115/194
s 19
f 62/93/195 61/92/196 64/94/180 65/95/179
s 22
f 61/186/197 63/182/198 67/183/199 66/184/200
s 23
f 66/184/201 67/183/202 69/180/203 68/185/204
s 17
f 70/154/205 69/157/206 73/158/166 74/155/165
s 20
f 68/83/207 70/82/208 72/84/192 71/85/191
s 24
f 75/32/209 76/69/210 83/70/211 82/35/212
s off
f 76/69/213 75/32/214 78/31/215 77/71/216
f 77/71/217 78/31/218 87/38/219 86/72/220
s 25
f 79/56/221 80/33/222 85/37/223 84/57/224
s off
f 80/33/225 79/56/226 122/55/227 121/73/228 81/34/229
f 81/34/230 121/73/231 123/58/232 89/59/233 88/40/234
s 24
f 82/35/212 83/70/211 95/74/235 94/43/236
s 25
f 84/57/224 85/37/223 97/44/237 96/61/238
s 26
f 86/72/239 87/38/240 91/41/241 90/75/242
s 27
f 88/40/243 89/59/244 93/60/245 92/42/246
s 26
f 90/75/242 91/41/241 106/50/247 105/76/248
s 27
f 92/42/246 93/60/245 108/65/249 107/51/250
s 24
f 94/43/236 95/74/235 99/77/251 98/46/252
s 25
f 96/61/238 97/44/237 101/47/253 100/62/254
s off
f 98/46/255 99/77/256 103/78/257 102/48/258
f 100/62/259 101/47/260 104/49/261 124/79/262 126/63/263
f 102/48/264 103/78/265 110/80/266 109/52/267
s 26
f 105/76/248 106/50/247 109/52/268 110/80/269
s 27
f 107/51/250 108/65/249 111/68/270 112/54/271
s off
f 19/110/272 20/117/273 21/111/274
f 26/113/275 27/105/276 28/112/277
f 29/125/278 30/127/279 31/122/280
f 36/138/281 37/139/282 38/135/283
s 18
f 43/187/170 44/96/169 45/188/284
s 21
f 48/89/187 49/90/285 50/86/188
s 22
f 61/92/197 62/93/286 63/91/198
s 23
f 68/83/204 69/81/203 70/82/287
s off
f 125/66/288 124/79/289 104/49/290 112/54/291 111/68/292
s 28
f 113/5/293 114/20/294 123/58/295 122/55/296
f 114/20/294 113/5/293 116/4/297 115/21/298
f 115/21/298 116/4/297 118/23/299 117/27/300
f 117/27/300 118/23/299 120/25/301 119/29/302
f 119/29/302 120/25/301 126/63/303 125/66/304
f 121/73/305 122/55/296 123/58/295
f 124/79/306 125/66/304 126/63/303
