# This file uses centimeters as units for non-parametric coordinates.

g default
v -0.361807 -1.370311 0.361807
v 0.361807 -1.370311 0.361807
v -0.361807 -0.646696 0.361807
v 0.361807 -0.646696 0.361807
v -0.361807 -0.646696 -0.361807
v 0.361807 -0.646696 -0.361807
v -0.361807 -1.370311 -0.361807
v 0.361807 -1.370311 -0.361807
v -0.253265 0.154106 0.253265
v 0.253265 0.154106 0.253265
v 0.253265 0.154106 -0.253265
v -0.253265 0.154106 -0.253265
v -0.126645 1.370311 0.126646
v -0.253265 1.320517 0.253265
v 0.126645 1.370311 0.126646
v 0.253265 1.320517 0.253265
v 0.126645 1.370311 -0.126646
v 0.253265 1.320517 -0.253265
v -0.126645 1.370311 -0.126646
v -0.253265 1.320517 -0.253265
v 0.126645 0.896434 0.126646
v 0.126645 0.896434 -0.126646
v -0.126645 0.896434 -0.126646
v -0.126645 0.896434 0.126646
vt 0.790146 0.236055
vt 0.420801 0.014015
vt 0.234010 0.429396
vt 0.781838 0.429346
vt 0.601810 0.429230
vt 0.421402 0.429240
vt 0.416805 0.235974
vt 0.603470 0.235968
vt 0.275705 0.640047
vt 0.779025 0.640063
vt 0.437781 0.639289
vt 0.608583 0.639295
vt 0.308006 0.958022
vt 0.778904 0.958204
vt 0.465318 0.958000
vt 0.622040 0.958047
vt 0.161544 0.898055
vt 0.161544 0.967451
vt 0.092148 0.967451
vt 0.092148 0.898055
vt 0.813867 0.995122
vt 0.657831 0.991827
vt 0.347617 0.990556
vt 0.503405 0.990491
vt 0.161544 0.898055
vt 0.161544 0.967451
vt 0.892896 0.997327
vt 0.936267 0.958431
vt 0.939558 0.641568
vt 0.966978 0.429612
vt 0.617768 0.012344
vt 0.975402 0.236219
vt 0.092148 0.967451
vt 0.092148 0.898055
vt 0.426811 0.990378
vt 0.582320 0.990945
vt 0.736731 0.993329
vt 0.231145 0.236055
vn -0.577350 -0.577350 0.577350
vn 0.577350 -0.577350 0.577350
vn 0.704343 0.088322 0.704343
vn -0.704343 0.088322 0.704343
vn -0.704343 0.088322 -0.704343
vn 0.704343 0.088322 -0.704343
vn 0.577350 -0.577350 -0.577350
vn -0.577350 -0.577350 -0.577350
vn 0.704195 0.090663 0.704194
vn -0.704195 0.090663 0.704194
vn 0.704195 0.090663 -0.704194
vn -0.704195 0.090663 -0.704194
vn 0.707107 0.000000 0.707107
vn -0.707107 0.000000 0.707107
vn 0.707107 0.000000 -0.707107
vn -0.707107 0.000000 -0.707107
vn -0.661441 0.353545 -0.661439
vn -0.661441 0.353545 0.661439
vn 0.661441 0.353545 0.661439
vn 0.661441 0.353545 -0.661439
vn -0.189440 0.963444 0.189440
vn -0.189440 0.963444 0.189440
vn -0.189440 0.963444 -0.189440
vn -0.189440 0.963444 -0.189440
vn 0.189440 0.963444 0.189440
vn 0.189440 0.963444 0.189440
vn 0.189440 0.963444 -0.189440
vn 0.189440 0.963444 -0.189440
vn -0.707108 0.000000 -0.707106
vn -0.707108 0.000000 0.707106
vn 0.707108 0.000000 0.707106
vn 0.707108 0.000000 -0.707106
s 1
g mdl_chimney
f 1/1/1 2/32/2 4/30/3 3/4/4
f 5/5/5 6/6/6 8/7/7 7/8/8
f 7/8/8 8/7/7 2/2/2 1/31/1
f 2/38/2 8/7/7 6/6/6 4/3/3
f 7/8/8 1/1/1 3/4/4 5/5/5
f 3/4/4 4/30/3 10/29/9 9/10/10
f 4/3/3 6/6/6 11/11/11 10/9/9
f 6/6/6 5/5/5 12/12/12 11/11/11
f 5/5/5 3/4/4 9/10/10 12/12/12
f 9/10/10 10/29/9 16/28/13 14/14/14
f 10/9/9 11/11/11 18/15/15 16/13/13
f 11/11/11 12/12/12 20/16/16 18/15/15
f 12/12/12 9/10/10 14/14/14 20/16/16
s 3
f 21/17/17 22/18/18 23/19/19 24/20/20
s 4
f 14/14/21 13/37/22 19/22/23 20/16/24
f 13/21/22 14/14/21 16/28/25 15/27/26
f 15/23/26 16/13/25 18/15/27 17/35/28
f 17/24/28 18/15/27 20/16/24 19/36/23
s 3
f 15/25/29 17/26/30 22/18/18 21/17/17
f 17/26/30 19/33/31 23/19/19 22/18/18
f 19/33/31 13/34/32 24/20/20 23/19/19
f 13/34/32 15/25/29 21/17/17 24/20/20
