# This file uses centimeters as units for non-parametric coordinates.

g default
v -0.077881 0.013651 -0.241777
v -0.077881 -0.005907 -0.233676
v -0.077881 -0.025466 -0.241777
v -0.077881 -0.033567 -0.261335
v -0.077881 -0.025466 -0.280893
v -0.077881 -0.005907 -0.288995
v -0.077881 0.013651 -0.280893
v -0.077881 0.021752 -0.261335
v -0.106898 0.013651 -0.241777
v -0.106898 -0.005907 -0.233676
v -0.106898 -0.025466 -0.241777
v -0.106898 -0.033567 -0.261335
v -0.106898 -0.025466 -0.280893
v -0.106898 -0.005907 -0.288995
v -0.106898 0.013651 -0.280893
v -0.106898 0.021752 -0.261335
v -0.077881 -0.005907 -0.261335
v -0.139755 0.013651 -0.241777
v -0.139755 -0.005907 -0.233676
v -0.139755 -0.005907 -0.261335
v -0.139755 -0.025466 -0.241777
v -0.139755 -0.033567 -0.261335
v -0.139755 -0.025466 -0.280893
v -0.139755 -0.005907 -0.288995
v -0.139755 0.013651 -0.280893
v -0.139755 0.021752 -0.261335
v -0.106898 0.028225 -0.206593
v -0.106898 0.008666 -0.198492
v -0.139755 0.008666 -0.198492
v -0.139755 0.028225 -0.206593
v -0.106898 0.023791 -0.163568
v -0.106898 0.002803 -0.166332
v -0.139755 0.002803 -0.166332
v -0.139755 0.023791 -0.163568
v -0.106898 0.001846 -0.124071
v -0.106898 -0.019142 -0.126835
v -0.139755 -0.019142 -0.126835
v -0.139755 0.001846 -0.124071
v 0.139755 -1.000000 0.500000
v 0.139755 1.000000 0.500000
v 0.139755 1.000000 -0.500000
v 0.139755 -1.000000 -0.500000
v -0.138450 -0.837486 0.356841
v -0.138451 -1.000000 0.500000
v -0.138450 0.837486 0.356841
v -0.138451 1.000000 0.500000
v -0.138450 0.837486 -0.356841
v -0.138451 1.000000 -0.500000
v -0.138450 -0.837486 -0.356841
v -0.138451 -1.000000 -0.500000
v -0.079062 0.837486 0.356841
v -0.079062 0.837486 -0.356841
v -0.079062 -0.837486 -0.356841
v -0.079062 -0.837486 0.356841
vt 0.620888 0.506825
vt 0.620888 0.506825
vt 0.616838 0.497046
vt 0.616838 0.497046
vt 0.620888 0.487267
vt 0.620888 0.487267
vt 0.630667 0.483216
vt 0.630667 0.483216
vt 0.640447 0.487267
vt 0.640447 0.487267
vt 0.644497 0.497046
vt 0.644497 0.497046
vt 0.640447 0.506825
vt 0.640447 0.506825
vt 0.630667 0.510876
vt 0.630667 0.510876
vt 0.630667 0.497046
vt 0.620888 0.506825
vt 0.630667 0.497046
vt 0.616838 0.497046
vt 0.620888 0.487267
vt 0.630667 0.483216
vt 0.640447 0.487267
vt 0.644497 0.497046
vt 0.640447 0.506825
vt 0.630667 0.510876
vt 0.562036 0.500923
vt 0.562036 0.500923
vt 0.563417 0.490429
vt 0.563417 0.490429
vt 0.603296 0.514112
vt 0.599246 0.504333
vt 0.599246 0.504333
vt 0.603296 0.514112
vt 0.581784 0.511896
vt 0.583166 0.501401
vt 0.583166 0.501401
vt 0.581784 0.511896
vt 0.250000 1.000000
vt 0.250000 0.000000
vt 0.250000 0.000000
vt 0.250000 1.000000
vt 0.750000 1.000000
vt 0.750000 1.000000
vt 0.750000 0.000000
vt 0.750000 0.000000
vt 0.321579 0.918743
vt 0.678421 0.918743
vt 0.678421 0.081257
vt 0.321579 0.081257
vt 0.321579 0.081257
vt 0.678421 0.081257
vt 0.321579 0.918743
vt 0.678421 0.918743
vn -0.000001 0.382670 0.923885
vn -0.000001 0.382670 0.923885
vn -0.000001 0.382670 0.923885
vn -0.000001 0.382670 0.923885
vn 0.000000 -0.382670 0.923885
vn 0.000000 -0.382670 0.923885
vn 0.000000 -0.382670 0.923885
vn 0.000000 -0.382670 0.923885
vn 0.000000 -0.923879 0.382686
vn 0.000000 -0.923879 0.382686
vn 0.000000 -0.923879 0.382686
vn 0.000000 -0.923879 0.382686
vn 0.000000 -0.923880 -0.382682
vn 0.000000 -0.923880 -0.382682
vn 0.000000 -0.923880 -0.382682
vn 0.000000 -0.923880 -0.382682
vn 0.000000 -0.382679 -0.923881
vn 0.000000 -0.382679 -0.923881
vn 0.000000 -0.382679 -0.923881
vn 0.000000 -0.382679 -0.923881
vn 0.000000 0.382679 -0.923881
vn 0.000000 0.382679 -0.923881
vn 0.000000 0.382679 -0.923881
vn 0.000000 0.382679 -0.923881
vn 0.000000 0.923880 -0.382682
vn 0.000000 0.923880 -0.382682
vn 0.000000 0.923880 -0.382682
vn 0.000000 0.923880 -0.382682
vn 0.000000 0.923879 0.382686
vn 0.000000 0.923879 0.382686
vn 0.000000 0.923879 0.382686
vn 0.000000 0.923879 0.382686
vn 1.000000 0.000000 0.000000
vn 1.000000 0.000000 0.000000
vn 1.000000 0.000000 0.000000
vn 1.000000 -0.000000 0.000000
vn 1.000000 0.000000 0.000000
vn 1.000000 -0.000000 0.000000
vn 1.000000 0.000000 0.000000
vn 1.000000 0.000000 0.000000
vn 1.000000 0.000000 0.000000
vn -1.000000 0.000000 0.000000
vn -1.000000 0.000000 0.000000
vn -1.000000 0.000000 0.000000
vn -1.000000 0.000000 0.000000
vn -1.000000 0.000000 0.000000
vn -1.000000 0.000000 0.000000
vn -1.000000 0.000000 0.000000
vn -1.000000 0.000000 0.000000
vn -1.000000 0.000000 0.000000
vn 0.000000 -0.130529 0.991445
vn 0.000000 -0.130529 0.991445
vn 0.000000 -0.130529 0.991445
vn 0.000000 -0.130529 0.991445
vn 0.000000 -0.382670 0.923885
vn 0.000000 -0.382670 0.923885
vn 0.000000 -0.923879 0.382686
vn 0.000000 -0.923879 0.382686
vn 0.000000 -0.923880 -0.382681
vn 0.000000 -0.923880 -0.382681
vn 0.000000 -0.382679 -0.923881
vn 0.000000 -0.382679 -0.923881
vn 0.000000 0.382679 -0.923881
vn 0.000000 0.382679 -0.923881
vn 0.000000 0.923880 -0.382682
vn 0.000000 0.923880 -0.382682
vn 0.000000 0.923879 0.382686
vn 0.000000 0.923879 0.382686
vn 1.000000 -0.000000 0.000000
vn 1.000000 0.000000 0.000000
vn 1.000000 0.000000 0.000000
vn 1.000000 -0.000000 0.000000
vn 0.000000 -0.923879 0.382685
vn 0.000000 -0.991740 0.128267
vn 0.000000 -0.991740 0.128267
vn 0.000000 -0.923879 0.382685
vn -1.000000 -0.000000 0.000000
vn -1.000000 -0.000000 0.000000
vn -0.000000 0.923879 -0.382685
vn -0.000000 0.991699 -0.128581
vn -0.000000 0.991699 -0.128581
vn -0.000000 0.923879 -0.382685
vn 1.000000 0.000000 0.000000
vn 1.000000 0.000000 0.000000
vn 0.000000 -0.932260 -0.361789
vn 0.000000 -0.932260 -0.361789
vn -1.000000 -0.000000 0.000000
vn -1.000000 -0.000000 0.000000
vn 0.000000 0.952520 0.304475
vn 0.000000 0.952520 0.304475
vn 1.000000 0.000000 0.000000
vn 1.000000 0.000000 0.000000
vn 0.000000 -0.874138 -0.485678
vn 0.000000 -0.874138 -0.485678
vn -1.000000 -0.000000 0.000000
vn -1.000000 -0.000000 0.000000
vn 0.000000 0.874138 0.485678
vn 0.000000 0.874138 0.485678
vn 0.000000 0.000000 1.000000
vn 0.000000 0.000000 1.000000
vn 0.000000 0.000000 1.000000
vn 0.000000 0.000000 1.000000
vn 0.000000 1.000000 0.000000
vn 0.000000 1.000000 0.000000
vn 0.000000 1.000000 0.000000
vn 0.000000 1.000000 0.000000
vn 0.000000 0.000000 -1.000000
vn 0.000000 0.000000 -1.000000
vn 0.000000 0.000000 -1.000000
vn 0.000000 0.000000 -1.000000
vn 0.000000 -1.000000 0.000000
vn 0.000000 -1.000000 0.000000
vn 0.000000 -1.000000 0.000000
vn 0.000000 -1.000000 0.000000
vn 1.000000 0.000000 0.000000
vn 1.000000 0.000000 0.000000
vn 1.000000 0.000000 0.000000
vn 1.000000 0.000000 0.000000
vn -1.000000 0.000000 0.000000
vn -1.000000 0.000000 0.000000
vn -1.000000 0.000000 0.000000
vn -1.000000 0.000000 0.000000
vn -1.000000 0.000011 0.000000
vn -1.000000 0.000011 0.000000
vn -1.000000 0.000011 0.000000
vn -1.000000 0.000011 0.000000
vn -1.000000 0.000000 -0.000013
vn -1.000000 0.000000 -0.000013
vn -1.000000 0.000000 -0.000013
vn -1.000000 0.000000 -0.000013
vn -1.000000 -0.000011 0.000000
vn -1.000000 -0.000011 0.000000
vn -1.000000 -0.000011 0.000000
vn -1.000000 -0.000011 0.000000
vn -1.000000 0.000000 0.000013
vn -1.000000 0.000000 0.000013
vn -1.000000 0.000000 0.000013
vn -1.000000 0.000000 0.000013
vn 0.000000 -1.000000 0.000000
vn 0.000000 -1.000000 0.000000
vn 0.000000 -1.000000 0.000000
vn 0.000000 -1.000000 0.000000
vn 0.000000 0.000000 1.000000
vn 0.000000 0.000000 1.000000
vn 0.000000 0.000000 1.000000
vn 0.000000 0.000000 1.000000
vn 0.000000 1.000000 0.000000
vn 0.000000 1.000000 0.000000
vn 0.000000 1.000000 0.000000
vn 0.000000 1.000000 0.000000
vn 0.000000 0.000000 -1.000000
vn 0.000000 0.000000 -1.000000
vn 0.000000 0.000000 -1.000000
vn 0.000000 0.000000 -1.000000
s off
g mdl_door
f 1/1/1 9/2/2 10/3/3 2/4/4
s 1
f 2/4/5 10/3/6 11/5/7 3/6/8
s 2
f 3/6/9 11/5/10 12/7/11 4/8/12
s 3
f 4/8/13 12/7/14 13/9/15 5/10/16
s 4
f 5/10/17 13/9/18 14/11/19 6/12/20
s 5
f 6/12/21 14/11/22 15/13/23 7/14/24
s 6
f 7/14/25 15/13/26 16/15/27 8/16/28
s 7
f 8/16/29 16/15/30 9/2/31 1/1/32
s 8
f 2/4/33 17/17/34 1/1/35
f 3/6/36 17/17/34 2/4/33
f 4/8/37 17/17/34 3/6/36
f 5/10/38 17/17/34 4/8/37
f 6/12/39 17/17/34 5/10/38
f 7/14/40 17/17/34 6/12/39
f 8/16/41 17/17/34 7/14/40
f 1/1/35 17/17/34 8/16/41
s 9
f 18/18/42 20/19/43 19/20/44
f 19/20/44 20/19/43 21/21/45
f 21/21/45 20/19/43 22/22/46
f 22/22/46 20/19/43 23/23/47
f 23/23/47 20/19/43 24/24/48
f 24/24/48 20/19/43 25/25/49
f 25/25/49 20/19/43 26/26/50
f 26/26/50 20/19/43 18/18/42
s off
f 35/27/51 38/28/52 37/29/53 36/30/54
s 1
f 10/3/6 19/20/55 21/21/56 11/5/7
s 2
f 11/5/10 21/21/57 22/22/58 12/7/11
s 3
f 12/7/14 22/22/59 23/23/60 13/9/15
s 4
f 13/9/18 23/23/61 24/24/62 14/11/19
s 5
f 14/11/22 24/24/63 25/25/64 15/13/23
s 6
f 15/13/26 25/25/65 26/26/66 16/15/27
s 7
f 16/15/30 26/26/67 18/18/68 9/2/31
s 10
f 9/2/69 27/31/70 28/32/71 10/3/72
s 11
f 10/3/73 28/32/74 29/33/75 19/20/76
s 9
f 19/20/44 29/33/77 30/34/78 18/18/42
s 12
f 18/18/79 30/34/80 27/31/81 9/2/82
s 10
f 27/31/70 31/35/83 32/36/84 28/32/71
s 11
f 28/32/74 32/36/85 33/37/86 29/33/75
s 9
f 29/33/77 33/37/87 34/38/88 30/34/78
s 12
f 30/34/80 34/38/89 31/35/90 27/31/81
s 10
f 31/35/83 35/27/91 36/30/92 32/36/84
s 11
f 32/36/85 36/30/93 37/29/94 33/37/86
s 9
f 33/37/87 37/29/95 38/28/96 34/38/88
s 12
f 34/38/89 38/28/97 35/27/98 31/35/90
s off
f 46/39/99 44/40/100 39/41/101 40/42/102
f 48/43/103 46/39/104 40/42/105 41/44/106
f 50/45/107 48/43/108 41/44/109 42/46/110
f 44/40/111 50/45/112 42/46/113 39/41/114
f 39/41/115 42/46/116 41/44/117 40/42/118
f 51/47/119 52/48/120 53/49/121 54/50/122
f 44/40/123 43/51/124 49/52/125 50/45/126
f 43/51/127 44/40/128 46/39/129 45/53/130
f 45/53/131 46/39/132 48/43/133 47/54/134
f 47/54/135 48/43/136 50/45/137 49/52/138
f 45/53/139 47/54/140 52/48/141 51/47/142
f 47/54/143 49/52/144 53/49/145 52/48/146
f 49/52/147 43/51/148 54/50/149 53/49/150
f 43/51/151 45/53/152 51/47/153 54/50/154
