# This file uses centimeters as units for non-parametric coordinates.

g default
v -0.794736 -0.500000 0.500000
v -0.264912 -0.500000 0.500000
v 0.264912 -0.500000 0.500000
v 0.794736 -0.500000 0.500000
v -0.794736 -0.166667 0.500000
v -0.264912 -0.166667 0.500000
v 0.264912 -0.166667 0.500000
v 0.794736 -0.166667 0.500000
v -0.264912 0.166667 0.500000
v 0.264912 0.166667 0.500000
v 0.794736 0.166667 0.500000
v 0.264912 0.500000 0.500000
v 0.794736 0.500000 0.500000
v 0.264912 0.500000 -0.500000
v 0.794736 0.500000 -0.500000
v -0.264912 0.166667 -0.500000
v 0.264912 0.166667 -0.500000
v 0.794736 0.166667 -0.500000
v -0.794736 -0.166667 -0.500000
v -0.264912 -0.166667 -0.500000
v 0.264912 -0.166667 -0.500000
v 0.794736 -0.166667 -0.500000
v -0.794736 -0.500000 -0.500000
v -0.264912 -0.500000 -0.500000
v 0.264912 -0.500000 -0.500000
v 0.794736 -0.500000 -0.500000
vt 0.001918 0.439638
vt 0.001918 0.293756
vt 0.093699 0.293756
vt 0.093699 0.439638
vt 0.001918 0.147874
vt 0.093699 0.147874
vt 0.001918 0.001992
vt 0.093699 0.001992
vt 0.185479 0.147874
vt 0.185479 0.293756
vt 0.185479 0.001992
vt 0.277259 0.001992
vt 0.277259 0.147874
vt 0.815257 0.443482
vt 0.961139 0.443482
vt 0.961139 0.718823
vt 0.815257 0.718823
vt 0.283649 0.147874
vt 0.283649 0.001992
vt 0.375429 0.001992
vt 0.375429 0.147874
vt 0.467210 0.001992
vt 0.467210 0.147874
vt 0.558990 0.001992
vt 0.558990 0.147874
vt 0.375429 0.293756
vt 0.467210 0.293756
vt 0.558990 0.293756
vt 0.467210 0.439638
vt 0.558990 0.439638
vt 0.565192 0.439638
vt 0.565192 0.293756
vt 0.840533 0.293756
vt 0.840533 0.439638
vt 0.565192 0.147874
vt 0.840533 0.147874
vt 0.565192 0.001992
vt 0.840533 0.001992
vt 0.534007 0.443483
vt 0.809348 0.443483
vt 0.809348 0.535263
vt 0.534007 0.535263
vt 0.809348 0.627043
vt 0.534007 0.627043
vt 0.809348 0.718823
vt 0.534007 0.718823
vt 0.132737 0.718823
vt 0.132737 0.443482
vt 0.224517 0.443482
vt 0.224517 0.718823
vt 0.382216 0.443482
vt 0.528099 0.443482
vt 0.528099 0.718823
vt 0.382216 0.718823
vt 0.035048 0.443482
vt 0.126828 0.443482
vt 0.126828 0.718823
vt 0.035048 0.718823
vt 0.230426 0.443482
vt 0.376308 0.443482
vt 0.376308 0.718823
vt 0.230426 0.718823
vt 0.001918 0.722667
vt 0.093699 0.722667
vt 0.093699 0.998008
vt 0.001918 0.998008
vn 0.000000 0.000000 1.000000
vn 0.000000 0.000000 1.000000
vn 0.000000 0.000000 1.000000
vn 0.000000 0.000000 1.000000
vn 0.000000 0.000000 1.000000
vn 0.000000 0.000000 1.000000
vn 0.000000 0.000000 1.000000
vn 0.000000 0.000000 1.000000
vn 0.000000 0.000000 1.000000
vn 0.000000 0.000000 1.000000
vn 0.000000 0.000000 1.000000
vn 0.000000 0.000000 1.000000
vn 0.000000 0.000000 1.000000
vn 0.000000 1.000000 0.000000
vn 0.000000 1.000000 0.000000
vn 0.000000 1.000000 0.000000
vn 0.000000 1.000000 0.000000
vn 0.000000 0.000000 -1.000000
vn 0.000000 0.000000 -1.000000
vn 0.000000 0.000000 -1.000000
vn 0.000000 0.000000 -1.000000
vn 0.000000 0.000000 -1.000000
vn 0.000000 0.000000 -1.000000
vn 0.000000 0.000000 -1.000000
vn 0.000000 0.000000 -1.000000
vn 0.000000 0.000000 -1.000000
vn 0.000000 0.000000 -1.000000
vn 0.000000 0.000000 -1.000000
vn 0.000000 0.000000 -1.000000
vn 0.000000 0.000000 -1.000000
vn 0.000000 -1.000000 0.000000
vn 0.000000 -1.000000 0.000000
vn 0.000000 -1.000000 0.000000
vn 0.000000 -1.000000 0.000000
vn 0.000000 -1.000000 0.000000
vn 0.000000 -1.000000 0.000000
vn 0.000000 -1.000000 0.000000
vn 0.000000 -1.000000 0.000000
vn 1.000000 0.000000 0.000000
vn 1.000000 0.000000 0.000000
vn 1.000000 0.000000 0.000000
vn 1.000000 0.000000 0.000000
vn 1.000000 0.000000 0.000000
vn 1.000000 0.000000 0.000000
vn 1.000000 0.000000 0.000000
vn 1.000000 0.000000 0.000000
vn -1.000000 0.000000 0.000000
vn -1.000000 0.000000 0.000000
vn -1.000000 0.000000 0.000000
vn -1.000000 0.000000 0.000000
vn 0.000000 1.000000 -0.000000
vn 0.000000 1.000000 -0.000000
vn 0.000000 1.000000 -0.000000
vn 0.000000 1.000000 -0.000000
vn -1.000000 0.000000 0.000000
vn -1.000000 0.000000 0.000000
vn -1.000000 0.000000 0.000000
vn -1.000000 0.000000 0.000000
vn 0.000000 1.000000 -0.000000
vn 0.000000 1.000000 -0.000000
vn 0.000000 1.000000 -0.000000
vn 0.000000 1.000000 -0.000000
vn -1.000000 0.000000 0.000000
vn -1.000000 0.000000 0.000000
vn -1.000000 0.000000 0.000000
vn -1.000000 0.000000 0.000000
s 1
g mdl_stairs
f 1/1/1 2/2/2 6/3/3 5/4/4
f 2/2/2 3/5/5 7/6/6 6/3/3
f 3/5/5 4/7/7 8/8/8 7/6/6
f 6/3/3 7/6/6 10/9/9 9/10/10
f 7/6/6 8/8/8 11/11/11 10/9/9
f 10/9/9 11/11/11 13/12/12 12/13/13
s off
f 12/14/14 13/15/15 15/16/16 14/17/17
s 2
f 14/18/18 15/19/19 18/20/20 17/21/21
f 16/26/22 17/21/21 21/23/23 20/27/24
f 17/21/21 18/20/20 22/22/25 21/23/23
f 19/29/26 20/27/24 24/28/27 23/30/28
f 20/27/24 21/23/23 25/25/29 24/28/27
f 21/23/23 22/22/25 26/24/30 25/25/29
s 3
f 23/31/31 24/32/32 2/33/33 1/34/34
f 24/32/32 25/35/35 3/36/36 2/33/33
f 25/35/35 26/37/37 4/38/38 3/36/36
s 4
f 4/39/39 26/40/40 22/41/41 8/42/42
f 8/42/42 22/41/41 18/43/43 11/44/44
f 11/44/44 18/43/43 15/45/45 13/46/46
s off
f 23/47/47 1/48/48 5/49/49 19/50/50
f 5/51/51 6/52/52 20/53/53 19/54/54
f 6/55/55 9/56/56 16/57/57 20/58/58
f 9/59/59 10/60/60 17/61/61 16/62/62
f 10/63/63 12/64/64 14/65/65 17/66/66
