# This file uses centimeters as units for non-parametric coordinates.

g default
v 0.461940 -2.248070 -0.191341
v 0.353554 -2.248070 -0.353553
v 0.191342 -2.248070 -0.461940
v 0.000000 -2.248070 -0.500000
v -0.191341 -2.248070 -0.461940
v -0.353553 -2.248070 -0.353554
v -0.461940 -2.248070 -0.191342
v -0.500000 -2.248070 -0.000000
v -0.461940 -2.248070 0.191342
v -0.353553 -2.248070 0.353553
v -0.191342 -2.248070 0.461940
v -0.000000 -2.248070 0.500000
v 0.191342 -2.248070 0.461940
v 0.353553 -2.248070 0.353553
v 0.461940 -2.248070 0.191342
v 0.500000 -2.248070 0.000000
v 0.923880 -2.248070 -0.382683
v 0.707107 -2.248070 -0.707106
v 0.382684 -2.248070 -0.923879
v 0.000001 -2.248070 -1.000000
v -0.382683 -2.248070 -0.923880
v -0.707106 -2.248070 -0.707107
v -0.923879 -2.248070 -0.382684
v -1.000000 -2.248070 -0.000000
v -0.923880 -2.248070 0.382683
v -0.707107 -2.248070 0.707107
v -0.382684 -2.248070 0.923879
v -0.000000 -2.248070 1.000000
v 0.382683 -2.248070 0.923880
v 0.707107 -2.248070 0.707107
v 0.923880 -2.248070 0.382683
v 1.000000 -2.248070 -0.000000
v 0.923880 0.000000 -0.382683
v 0.707107 0.000000 -0.707106
v 0.382684 0.000000 -0.923879
v 0.000001 0.000000 -1.000000
v -0.382683 0.000000 -0.923880
v -0.707106 0.000000 -0.707107
v -0.923879 0.000000 -0.382684
v -1.000000 0.000000 -0.000000
v -0.923880 0.000000 0.382683
v -0.707107 0.000000 0.707107
v -0.382684 0.000000 0.923879
v -0.000000 0.000000 1.000000
v 0.382683 0.000000 0.923880
v 0.707107 0.000000 0.707107
v 0.923880 0.000000 0.382683
v 1.000000 0.000000 0.000000
v 0.923880 2.248070 -0.382683
v 0.707107 2.248070 -0.707106
v 0.382684 2.248070 -0.923879
v 0.000001 2.248070 -1.000000
v -0.382683 2.248070 -0.923880
v -0.707106 2.248070 -0.707107
v -0.923879 2.248070 -0.382684
v -1.000000 2.248070 -0.000000
v -0.923880 2.248070 0.382683
v -0.707107 2.248070 0.707107
v -0.382684 2.248070 0.923879
v -0.000000 2.248070 1.000000
v 0.382683 2.248070 0.923880
v 0.707107 2.248070 0.707107
v 0.923880 2.248070 0.382683
v 1.000000 2.248070 0.000000
v 0.258470 3.790080 -0.107062
v 0.197824 3.790080 -0.197824
v 0.107062 3.790080 -0.258470
v 0.000000 3.790080 -0.279766
v -0.107062 3.790080 -0.258470
v -0.197824 3.790080 -0.197824
v -0.258470 3.790080 -0.107062
v -0.279766 3.790080 -0.000000
v -0.258470 3.790080 0.107062
v -0.197824 3.790080 0.197824
v -0.107062 3.790080 0.258470
v -0.000000 3.790080 0.279766
v 0.107062 3.790080 0.258470
v 0.197824 3.790080 0.197824
v 0.258470 3.790080 0.107062
v 0.279766 3.790080 0.000000
v 0.000000 -2.248070 0.000000
v 0.000000 4.036969 0.000000
v 0.243896 3.250838 -0.588816
v 0.450661 3.250838 -0.450660
v 0.588816 3.250838 -0.243895
v 0.637330 3.250838 0.000000
v 0.588816 3.250838 0.243896
v 0.450660 3.250838 0.450660
v 0.243896 3.250838 0.588816
v -0.000000 3.250838 0.637330
v -0.243896 3.250838 0.588816
v -0.450661 3.250838 0.450660
v -0.588816 3.250838 0.243895
v -0.637330 3.250838 -0.000000
v -0.588816 3.250838 -0.243896
v -0.450660 3.250838 -0.450661
v -0.243895 3.250838 -0.588816
v 0.000000 3.250838 -0.637330
v 0.287084 3.009504 -0.693081
v 0.530462 3.009504 -0.530461
v 0.693082 3.009504 -0.287083
v 0.750186 3.009504 -0.000000
v 0.693081 3.009504 0.287084
v 0.530462 3.009504 0.530462
v 0.287084 3.009504 0.693081
v -0.000000 3.009504 0.750186
v -0.287084 3.009504 0.693081
v -0.530462 3.009504 0.530461
v -0.693082 3.009504 0.287084
v -0.750186 3.009504 -0.000000
v -0.693081 3.009504 -0.287084
v -0.530461 3.009504 -0.530462
v -0.287083 3.009504 -0.693082
v 0.000000 3.009504 -0.750186
v 0.330526 2.617031 -0.797959
v 0.610732 2.617031 -0.610731
v 0.797959 2.617031 -0.330525
v 0.863705 2.617031 0.000000
v 0.797959 2.617031 0.330525
v 0.610731 2.617031 0.610731
v 0.330525 2.617031 0.797959
v -0.000000 2.617031 0.863705
v -0.330526 2.617031 0.797959
v -0.610731 2.617031 0.610731
v -0.797959 2.617031 0.330525
v -0.863705 2.617031 -0.000000
v -0.797959 2.617031 -0.330526
v -0.610731 2.617031 -0.610732
v -0.330525 2.617031 -0.797959
v 0.000000 2.617031 -0.863705
v -0.829596 2.637292 -0.343630
v -0.634945 2.637292 -0.634946
v -0.343630 2.637292 -0.829596
v 0.000000 2.637292 -0.897948
v 0.343630 2.637292 -0.829596
v 0.634946 2.637292 -0.634945
v 0.829596 2.637292 -0.343629
v 0.897948 2.637292 -0.000000
v 0.829596 2.637292 0.343630
v 0.634945 2.637292 0.634946
v 0.343630 2.637292 0.829596
v -0.000000 2.637292 0.897948
v -0.343630 2.637292 0.829596
v -0.634946 2.637292 0.634945
v -0.829596 2.637292 0.343630
v -0.897948 2.637292 -0.000000
v -0.856354 2.543670 -0.354714
v -0.655424 2.543670 -0.655425
v -0.354713 2.543670 -0.856354
v 0.000000 2.543670 -0.926910
v 0.354714 2.543670 -0.856353
v 0.655425 2.543670 -0.655424
v 0.856354 2.543670 -0.354713
v 0.926911 2.543670 -0.000000
v 0.856354 2.543670 0.354713
v 0.655425 2.543670 0.655425
v 0.354713 2.543670 0.856354
v -0.000000 2.543670 0.926911
v -0.354713 2.543670 0.856354
v -0.655425 2.543670 0.655425
v -0.856354 2.543670 0.354713
v -0.926911 2.543670 -0.000000
v -0.456410 3.556692 -0.000000
v -0.421668 3.556692 -0.174661
v -0.322731 3.556692 -0.322731
v -0.174661 3.556692 -0.421668
v 0.000000 3.556692 -0.456410
v 0.174661 3.556692 -0.421668
v 0.322731 3.556692 -0.322731
v 0.421668 3.556692 -0.174660
v 0.456410 3.556692 0.000000
v 0.421668 3.556692 0.174661
v 0.322731 3.556692 0.322731
v 0.174661 3.556692 0.421668
v -0.000000 3.556692 0.456410
v -0.174661 3.556692 0.421668
v -0.322731 3.556692 0.322731
v -0.421668 3.556692 0.174661
vt 0.811543 0.685761
vt 0.846188 0.708911
vt 0.002087 0.270979
vt 0.001965 0.315993
vt 0.921702 0.633397
vt 0.002410 0.226028
vt 0.852410 0.587098
vt 0.002907 0.181151
vt 0.869338 0.743556
vt 0.003486 0.136352
vt 0.968001 0.702689
vt 0.004075 0.091587
vt 0.877467 0.784424
vt 0.004662 0.046805
vt 0.984259 0.784424
vt 0.009433 0.719957
vt 0.869338 0.825291
vt 0.008382 0.675174
vt 0.968001 0.866159
vt 0.007274 0.630425
vt 0.846188 0.859937
vt 0.006156 0.585691
vt 0.921702 0.935451
vt 0.005044 0.540918
vt 0.811543 0.883087
vt 0.004010 0.496060
vt 0.852410 0.981750
vt 0.003150 0.451116
vt 0.770675 0.891216
vt 0.002495 0.406106
vt 0.770675 0.998008
vt 0.002089 0.361051
vt 0.259876 0.271286
vt 0.259839 0.315415
vt 0.260236 0.227115
vt 0.260495 0.182837
vt 0.261135 0.138531
vt 0.261940 0.094079
vt 0.262592 0.049409
vt 0.267767 0.714292
vt 0.266171 0.669571
vt 0.265026 0.624951
vt 0.263696 0.580490
vt 0.262544 0.536226
vt 0.261777 0.491943
vt 0.260899 0.447786
vt 0.260353 0.403669
vt 0.260087 0.359536
vt 0.512599 0.272912
vt 0.512287 0.315541
vt 0.513188 0.230271
vt 0.514162 0.187487
vt 0.515523 0.144586
vt 0.517236 0.101412
vt 0.519380 0.057779
vt 0.525850 0.702762
vt 0.522789 0.658366
vt 0.520153 0.614733
vt 0.517955 0.571587
vt 0.516113 0.528664
vt 0.514662 0.485929
vt 0.513568 0.443254
vt 0.512785 0.400677
vt 0.512359 0.358091
vt 0.547780 0.273338
vt 0.547605 0.315633
vt 0.548398 0.230948
vt 0.549354 0.188550
vt 0.550735 0.146114
vt 0.552463 0.103667
vt 0.554404 0.061367
vt 0.558549 0.019442
vt 0.557775 0.654346
vt 0.555410 0.612068
vt 0.553209 0.569645
vt 0.551319 0.527208
vt 0.549825 0.484822
vt 0.548841 0.442459
vt 0.548045 0.400155
vt 0.547580 0.357904
vt 0.729808 0.883087
vt 0.685207 0.296728
vt 0.679850 0.310549
vt 0.628667 0.282206
vt 0.671180 0.322853
vt 0.659671 0.332871
vt 0.645794 0.340113
vt 0.630185 0.343978
vt 0.613745 0.344088
vt 0.597216 0.339930
vt 0.613281 0.220300
vt 0.629888 0.220303
vt 0.645561 0.224173
vt 0.659465 0.231347
vt 0.671078 0.241418
vt 0.679762 0.253706
vt 0.685169 0.267500
vt 0.687011 0.282154
vt 0.762497 0.350108
vt 0.743560 0.379985
vt 0.703798 0.349275
vt 0.717333 0.328835
vt 0.774311 0.316882
vt 0.725743 0.306040
vt 0.778267 0.281921
vt 0.728575 0.282027
vt 0.774160 0.246962
vt 0.725655 0.258019
vt 0.762215 0.213766
vt 0.717152 0.235230
vt 0.743163 0.183934
vt 0.703515 0.214806
vt 0.717952 0.158747
vt 0.685389 0.197748
vt 0.687783 0.139100
vt 0.663536 0.184848
vt 0.653803 0.125580
vt 0.638818 0.176712
vt 0.617046 0.118353
vt 0.612110 0.173697
vt 0.579183 0.446740
vt 0.584276 0.175959
vt 0.617829 0.445677
vt 0.612776 0.390526
vt 0.654489 0.438433
vt 0.639377 0.387460
vt 0.688386 0.424899
vt 0.663987 0.379276
vt 0.718460 0.405210
vt 0.685750 0.366353
vt 0.797396 0.366421
vt 0.774268 0.403391
vt 0.811899 0.325229
vt 0.816772 0.281836
vt 0.811707 0.238459
vt 0.797037 0.197322
vt 0.773782 0.160431
vt 0.743251 0.129320
vt 0.707022 0.104941
vt 0.666590 0.087855
vt 0.623361 0.077890
vt 0.579167 0.489797
vt 0.624173 0.486044
vt 0.667324 0.476086
vt 0.707693 0.458992
vt 0.743846 0.434563
vt 0.857766 0.394854
vt 0.827089 0.443841
vt 0.822410 0.440218
vt 0.852419 0.392312
vt 0.877156 0.339855
vt 0.871380 0.338561
vt 0.883699 0.281658
vt 0.877775 0.281700
vt 0.876864 0.223514
vt 0.871104 0.224875
vt 0.857251 0.168631
vt 0.851911 0.171238
vt 0.826419 0.119796
vt 0.821756 0.123470
vt 0.786573 0.078932
vt 0.782764 0.083453
vt 0.739988 0.047124
vt 0.737078 0.052367
vt 0.688928 0.025022
vt 0.686999 0.030653
vt 0.635861 0.011975
vt 0.634763 0.017788
vt 0.583978 0.558068
vt 0.582187 0.552249
vt 0.636640 0.551877
vt 0.635528 0.546018
vt 0.689698 0.538869
vt 0.687751 0.533248
vt 0.740747 0.516736
vt 0.737839 0.511555
vt 0.787332 0.484869
vt 0.783484 0.480356
vt 0.565362 0.062466
vt 0.563396 0.104288
vt 0.561768 0.146564
vt 0.560317 0.188879
vt 0.559386 0.231164
vt 0.558874 0.273443
vt 0.558421 0.315693
vt 0.558477 0.357838
vt 0.558944 0.399994
vt 0.559780 0.442216
vt 0.560884 0.484478
vt 0.562241 0.526761
vt 0.564167 0.569063
vt 0.566335 0.611336
vt 0.568884 0.653099
vt 0.569306 0.022309
vt 0.585045 0.388329
vt 0.596662 0.224594
vt 0.562503 0.696297
vt 0.583206 0.005651
vt 0.573291 0.693291
vt 0.581396 0.011436
vt 0.578297 0.074075
vt 0.578294 0.117300
vt 0.688940 0.981750
vt 0.521978 0.013310
vt 0.263665 0.004672
vt 0.005196 0.001992
vt 0.695162 0.859937
vt 0.619649 0.935451
vt 0.672012 0.825292
vt 0.573349 0.866159
vt 0.663883 0.784424
vt 0.557091 0.784424
vt 0.672012 0.743556
vt 0.573349 0.702689
vt 0.695162 0.708911
vt 0.619648 0.633397
vt 0.729808 0.685761
vt 0.688940 0.587098
vt 0.770675 0.677632
vt 0.770675 0.570840
vt 0.770675 0.784424
vn 0.000000 -1.000000 -0.000000
vn 0.000000 -1.000000 0.000000
vn 0.699693 -0.144428 -0.699693
vn 0.914193 -0.144428 -0.378671
vn 0.000000 -1.000000 0.000000
vn 0.378671 -0.144428 -0.914193
vn 0.000000 -1.000000 0.000000
vn 0.000001 -0.144428 -0.989515
vn 0.000000 -1.000000 -0.000000
vn -0.378671 -0.144428 -0.914193
vn 0.000000 -1.000000 -0.000000
vn -0.699693 -0.144428 -0.699693
vn 0.000000 -1.000000 -0.000000
vn -0.914193 -0.144428 -0.378672
vn 0.000000 -1.000000 0.000000
vn -0.989515 -0.144428 -0.000000
vn 0.000000 -1.000000 -0.000000
vn -0.914193 -0.144428 0.378671
vn 0.000000 -1.000000 -0.000000
vn -0.699693 -0.144428 0.699693
vn 0.000000 -1.000000 0.000000
vn -0.378671 -0.144428 0.914193
vn 0.000000 -1.000000 0.000000
vn -0.000000 -0.144428 0.989515
vn 0.000000 -1.000000 -0.000000
vn 0.378671 -0.144428 0.914193
vn 0.000000 -1.000000 -0.000000
vn 0.699693 -0.144428 0.699693
vn 0.000000 -1.000000 0.000000
vn 0.914193 -0.144428 0.378671
vn 0.000000 -1.000000 -0.000000
vn 0.989515 -0.144428 0.000000
vn 0.707107 0.000000 -0.707106
vn 0.923880 0.000000 -0.382683
vn 0.382684 0.000000 -0.923879
vn 0.000001 0.000000 -1.000000
vn -0.382683 0.000000 -0.923880
vn -0.707106 0.000000 -0.707107
vn -0.923879 0.000000 -0.382684
vn -1.000000 0.000000 -0.000000
vn -0.923880 0.000000 0.382683
vn -0.707107 0.000000 0.707107
vn -0.382684 0.000000 0.923880
vn -0.000000 0.000000 1.000000
vn 0.382683 0.000000 0.923880
vn 0.707107 0.000000 0.707107
vn 0.923880 0.000000 0.382683
vn 1.000000 0.000000 0.000000
vn 0.706848 0.027054 -0.706848
vn 0.923542 0.027054 -0.382543
vn 0.382544 0.027054 -0.923541
vn 0.000001 0.027054 -0.999634
vn -0.382543 0.027054 -0.923542
vn -0.706848 0.027054 -0.706848
vn -0.923541 0.027054 -0.382544
vn -0.999634 0.027054 -0.000000
vn -0.923542 0.027054 0.382543
vn -0.706848 0.027054 0.706848
vn -0.382544 0.027054 0.923541
vn -0.000000 0.027054 0.999634
vn 0.382543 0.027054 0.923541
vn 0.706848 0.027054 0.706848
vn 0.923541 0.027054 0.382543
vn 0.999634 0.027054 0.000000
vn 0.666975 0.332099 -0.666974
vn 0.871445 0.332098 -0.360964
vn 0.360965 0.332098 -0.871444
vn 0.000001 0.332098 -0.943245
vn -0.360964 0.332098 -0.871445
vn -0.666974 0.332098 -0.666975
vn -0.871444 0.332098 -0.360965
vn -0.943245 0.332099 -0.000000
vn -0.871445 0.332099 0.360964
vn -0.666975 0.332099 0.666974
vn -0.360964 0.332098 0.871445
vn -0.000000 0.332098 0.943245
vn 0.360964 0.332098 0.871445
vn 0.666975 0.332098 0.666975
vn 0.871445 0.332098 0.360964
vn 0.943245 0.332098 0.000000
vn 0.000000 -1.000000 -0.000000
vn 0.703199 0.648591 -0.291274
vn 0.538205 0.648591 -0.538205
vn -0.000000 1.000000 0.000001
vn 0.291275 0.648591 -0.703198
vn 0.000001 0.648592 -0.761137
vn -0.291274 0.648592 -0.703199
vn -0.538205 0.648591 -0.538205
vn -0.703199 0.648591 -0.291275
vn -0.761137 0.648591 -0.000000
vn -0.703199 0.648591 0.291275
vn -0.538205 0.648591 0.538205
vn -0.291275 0.648591 0.703199
vn 0.000000 0.648591 0.761137
vn 0.291274 0.648592 0.703199
vn 0.538205 0.648591 0.538205
vn 0.703199 0.648591 0.291275
vn 0.761137 0.648591 0.000001
vn 0.625830 0.465482 -0.625830
vn 0.338697 0.465482 -0.817686
vn 0.321946 0.540593 -0.777245
vn 0.594878 0.540593 -0.594878
vn 0.817686 0.465482 -0.338697
vn 0.777245 0.540593 -0.321946
vn 0.885057 0.465482 0.000000
vn 0.841285 0.540593 0.000000
vn 0.817686 0.465482 0.338697
vn 0.777245 0.540593 0.321946
vn 0.625830 0.465482 0.625830
vn 0.594878 0.540593 0.594878
vn 0.338697 0.465482 0.817686
vn 0.321945 0.540593 0.777246
vn -0.000000 0.465482 0.885057
vn -0.000000 0.540593 0.841284
vn -0.338697 0.465482 0.817686
vn -0.321946 0.540593 0.777245
vn -0.625830 0.465482 0.625830
vn -0.594878 0.540593 0.594878
vn -0.817686 0.465482 0.338697
vn -0.777246 0.540593 0.321946
vn -0.885057 0.465482 -0.000000
vn -0.841284 0.540593 -0.000000
vn -0.817686 0.465482 -0.338697
vn -0.777245 0.540593 -0.321946
vn -0.625830 0.465482 -0.625830
vn -0.594878 0.540593 -0.594878
vn -0.338696 0.465482 -0.817686
vn -0.321945 0.540593 -0.777246
vn 0.000001 0.465482 -0.885057
vn 0.000001 0.540593 -0.841284
vn 0.651857 0.387513 -0.651856
vn 0.352783 0.387513 -0.851691
vn 0.851691 0.387513 -0.352782
vn 0.921864 0.387513 0.000000
vn 0.851691 0.387513 0.352782
vn 0.651856 0.387513 0.651856
vn 0.352782 0.387514 0.851691
vn -0.000000 0.387513 0.921864
vn -0.352782 0.387513 0.851691
vn -0.651856 0.387513 0.651856
vn -0.851691 0.387513 0.352782
vn -0.921864 0.387513 -0.000000
vn -0.851691 0.387513 -0.352782
vn -0.651856 0.387513 -0.651857
vn -0.352782 0.387513 -0.851692
vn 0.000001 0.387513 -0.921864
vn 0.676144 0.292674 -0.676144
vn 0.365927 0.292673 -0.883425
vn 0.367615 0.277856 -0.887500
vn 0.679263 0.277855 -0.679263
vn 0.883425 0.292674 -0.365926
vn 0.887500 0.277855 -0.367614
vn 0.956212 0.292674 0.000000
vn 0.960623 0.277856 0.000000
vn 0.883425 0.292673 0.365926
vn 0.887500 0.277856 0.367614
vn 0.676145 0.292673 0.676144
vn 0.679263 0.277856 0.679263
vn 0.365927 0.292673 0.883425
vn 0.367614 0.277856 0.887500
vn -0.000000 0.292673 0.956213
vn -0.000000 0.277856 0.960623
vn -0.365927 0.292673 0.883425
vn -0.367615 0.277855 0.887500
vn -0.676145 0.292673 0.676144
vn -0.679263 0.277855 0.679263
vn -0.883426 0.292673 0.365926
vn -0.887500 0.277855 0.367614
vn -0.956213 0.292673 0.000000
vn -0.960623 0.277855 -0.000000
vn -0.883425 0.292673 -0.365927
vn -0.887500 0.277856 -0.367615
vn -0.676145 0.292673 -0.676144
vn -0.679263 0.277855 -0.679263
vn -0.365927 0.292673 -0.883425
vn -0.367614 0.277856 -0.887500
vn 0.000001 0.292672 -0.956213
vn 0.000001 0.277856 -0.960623
s 1
g Shell
f 1/1/1 2/2/2 18/5/3 17/7/4
f 2/2/2 3/9/5 19/11/6 18/5/3
f 3/9/5 4/13/7 20/15/8 19/11/6
f 4/13/7 5/17/9 21/19/10 20/15/8
f 5/17/9 6/21/11 22/23/12 21/19/10
f 6/21/11 7/25/13 23/27/14 22/23/12
f 7/25/13 8/29/15 24/31/16 23/27/14
f 8/29/15 9/81/17 25/203/18 24/31/16
f 9/81/17 10/207/19 26/208/20 25/203/18
f 10/207/19 11/209/21 27/210/22 26/208/20
f 11/209/21 12/211/23 28/212/24 27/210/22
f 12/211/23 13/213/25 29/214/26 28/212/24
f 13/213/25 14/215/27 30/216/28 29/214/26
f 14/215/27 15/217/29 31/218/30 30/216/28
f 15/217/29 16/219/31 32/220/32 31/218/30
f 16/219/31 1/1/1 17/7/4 32/220/32
f 17/4/4 18/3/3 34/33/33 33/34/34
f 18/3/3 19/6/6 35/35/35 34/33/33
f 19/6/6 20/8/8 36/36/36 35/35/35
f 20/8/8 21/10/10 37/37/37 36/36/36
f 21/10/10 22/12/12 38/38/38 37/37/37
f 22/12/12 23/14/14 39/39/39 38/38/38
f 23/14/14 24/206/16 40/205/40 39/39/39
f 24/16/16 25/18/18 41/41/41 40/40/40
f 25/18/18 26/20/20 42/42/42 41/41/41
f 26/20/20 27/22/22 43/43/43 42/42/42
f 27/22/22 28/24/24 44/44/44 43/43/43
f 28/24/24 29/26/26 45/45/45 44/44/44
f 29/26/26 30/28/28 46/46/46 45/45/45
f 30/28/28 31/30/30 47/47/47 46/46/46
f 31/30/30 32/32/32 48/48/48 47/47/47
f 32/32/32 17/4/4 33/34/34 48/48/48
f 33/34/34 34/33/33 50/49/49 49/50/50
f 34/33/33 35/35/35 51/51/51 50/49/49
f 35/35/35 36/36/36 52/52/52 51/51/51
f 36/36/36 37/37/37 53/53/53 52/52/52
f 37/37/37 38/38/38 54/54/54 53/53/53
f 38/38/38 39/39/39 55/55/55 54/54/54
f 39/39/39 40/205/40 56/204/56 55/55/55
f 40/40/40 41/41/41 57/57/57 56/56/56
f 41/41/41 42/42/42 58/58/58 57/57/57
f 42/42/42 43/43/43 59/59/59 58/58/58
f 43/43/43 44/44/44 60/60/60 59/59/59
f 44/44/44 45/45/45 61/61/61 60/60/60
f 45/45/45 46/46/46 62/62/62 61/61/61
f 46/46/46 47/47/47 63/63/63 62/62/62
f 47/47/47 48/48/48 64/64/64 63/63/63
f 48/48/48 33/34/34 49/50/50 64/64/64
f 49/50/50 50/49/49 152/65/65 153/66/66
f 50/49/49 51/51/51 151/67/67 152/65/65
f 51/51/51 52/52/52 150/68/68 151/67/67
f 52/52/52 53/53/53 149/69/69 150/68/68
f 53/53/53 54/54/54 148/70/70 149/69/69
f 54/54/54 55/55/55 147/71/71 148/70/70
f 55/55/55 56/204/56 162/72/72 147/71/71
f 56/56/56 57/57/57 161/73/73 162/197/72
f 57/57/57 58/58/58 160/74/74 161/73/73
f 58/58/58 59/59/59 159/75/75 160/74/74
f 59/59/59 60/60/60 158/76/76 159/75/75
f 60/60/60 61/61/61 157/77/77 158/76/76
f 61/61/61 62/62/62 156/78/78 157/77/77
f 62/62/62 63/63/63 155/79/79 156/78/78
f 63/63/63 64/64/64 154/80/80 155/79/79
f 64/64/64 49/50/50 153/66/66 154/80/80
f 2/2/2 1/1/1 81/221/81
f 3/9/5 2/2/2 81/221/81
f 4/13/7 3/9/5 81/221/81
f 5/17/9 4/13/7 81/221/81
f 6/21/11 5/17/9 81/221/81
f 7/25/13 6/21/11 81/221/81
f 8/29/15 7/25/13 81/221/81
f 9/81/17 8/29/15 81/221/81
f 10/207/19 9/81/17 81/221/81
f 11/209/21 10/207/19 81/221/81
f 12/211/23 11/209/21 81/221/81
f 13/213/25 12/211/23 81/221/81
f 14/215/27 13/213/25 81/221/81
f 15/217/29 14/215/27 81/221/81
f 16/219/31 15/217/29 81/221/81
f 1/1/1 16/219/31 81/221/81
f 65/82/82 66/83/83 82/84/84
f 66/83/83 67/85/85 82/84/84
f 67/85/85 68/86/86 82/84/84
f 68/86/86 69/87/87 82/84/84
f 69/87/87 70/88/88 82/84/84
f 70/88/88 71/89/89 82/84/84
f 71/89/89 72/90/90 82/84/84
f 72/196/90 73/91/91 82/84/84
f 73/91/91 74/92/92 82/84/84
f 74/92/92 75/93/93 82/84/84
f 75/93/93 76/94/94 82/84/84
f 76/94/94 77/95/95 82/84/84
f 77/95/95 78/96/96 82/84/84
f 78/96/96 79/97/97 82/84/84
f 79/97/97 80/98/98 82/84/84
f 80/98/98 65/82/82 82/84/84
f 84/99/99 83/100/100 168/101/101 169/102/102
f 85/103/103 84/99/99 169/102/102 170/104/104
f 86/105/105 85/103/103 170/104/104 171/106/106
f 87/107/107 86/105/105 171/106/106 172/108/108
f 88/109/109 87/107/107 172/108/108 173/110/110
f 89/111/111 88/109/109 173/110/110 174/112/112
f 90/113/113 89/111/111 174/112/112 175/114/114
f 91/115/115 90/113/113 175/114/114 176/116/116
f 92/117/117 91/115/115 176/116/116 177/118/118
f 93/119/119 92/117/117 177/118/118 178/120/120
f 94/202/121 93/119/119 178/120/120 163/122/122
f 95/123/123 94/121/121 163/195/122 164/124/124
f 96/125/125 95/123/123 164/124/124 165/126/126
f 97/127/127 96/125/125 165/126/126 166/128/128
f 98/129/129 97/127/127 166/128/128 167/130/130
f 83/100/100 98/129/129 167/130/130 168/101/101
f 100/131/131 99/132/132 83/100/100 84/99/99
f 101/133/133 100/131/131 84/99/99 85/103/103
f 102/134/134 101/133/133 85/103/103 86/105/105
f 103/135/135 102/134/134 86/105/105 87/107/107
f 104/136/136 103/135/135 87/107/107 88/109/109
f 105/137/137 104/136/136 88/109/109 89/111/111
f 106/138/138 105/137/137 89/111/111 90/113/113
f 107/139/139 106/138/138 90/113/113 91/115/115
f 108/140/140 107/139/139 91/115/115 92/117/117
f 109/141/141 108/140/140 92/117/117 93/119/119
f 110/201/142 109/141/141 93/119/119 94/202/121
f 111/143/143 110/142/142 94/121/121 95/123/123
f 112/144/144 111/143/143 95/123/123 96/125/125
f 113/145/145 112/144/144 96/125/125 97/127/127
f 114/146/146 113/145/145 97/127/127 98/129/129
f 99/132/132 114/146/146 98/129/129 83/100/100
f 116/147/147 115/148/148 135/149/149 136/150/150
f 117/151/151 116/147/147 136/150/150 137/152/152
f 118/153/153 117/151/151 137/152/152 138/154/154
f 119/155/155 118/153/153 138/154/154 139/156/156
f 120/157/157 119/155/155 139/156/156 140/158/158
f 121/159/159 120/157/157 140/158/158 141/160/160
f 122/161/161 121/159/159 141/160/160 142/162/162
f 123/163/163 122/161/161 142/162/162 143/164/164
f 124/165/165 123/163/163 143/164/164 144/166/166
f 125/167/167 124/165/165 144/166/166 145/168/168
f 126/198/169 125/167/167 145/168/168 146/200/170
f 127/171/171 126/169/169 146/170/170 131/172/172
f 128/173/173 127/171/171 131/172/172 132/174/174
f 129/175/175 128/173/173 132/174/174 133/176/176
f 130/177/177 129/175/175 133/176/176 134/178/178
f 115/148/148 130/177/177 134/178/178 135/149/149
f 132/174/174 131/172/172 111/143/143 112/144/144
f 133/176/176 132/174/174 112/144/144 113/145/145
f 134/178/178 133/176/176 113/145/145 114/146/146
f 135/149/149 134/178/178 114/146/146 99/132/132
f 136/150/150 135/149/149 99/132/132 100/131/131
f 137/152/152 136/150/150 100/131/131 101/133/133
f 138/154/154 137/152/152 101/133/133 102/134/134
f 139/156/156 138/154/154 102/134/134 103/135/135
f 140/158/158 139/156/156 103/135/135 104/136/136
f 141/160/160 140/158/158 104/136/136 105/137/137
f 142/162/162 141/160/160 105/137/137 106/138/138
f 143/164/164 142/162/162 106/138/138 107/139/139
f 144/166/166 143/164/164 107/139/139 108/140/140
f 145/168/168 144/166/166 108/140/140 109/141/141
f 146/200/170 145/168/168 109/141/141 110/201/142
f 131/172/172 146/170/170 110/142/142 111/143/143
f 148/70/70 147/71/71 127/179/171 128/180/173
f 149/69/69 148/70/70 128/180/173 129/181/175
f 150/68/68 149/69/69 129/181/175 130/182/177
f 151/67/67 150/68/68 130/182/177 115/183/148
f 152/65/65 151/67/67 115/183/148 116/184/147
f 153/66/66 152/65/65 116/184/147 117/185/151
f 154/80/80 153/66/66 117/185/151 118/186/153
f 155/79/79 154/80/80 118/186/153 119/187/155
f 156/78/78 155/79/79 119/187/155 120/188/157
f 157/77/77 156/78/78 120/188/157 121/189/159
f 158/76/76 157/77/77 121/189/159 122/190/161
f 159/75/75 158/76/76 122/190/161 123/191/163
f 160/74/74 159/75/75 123/191/163 124/192/165
f 161/73/73 160/74/74 124/192/165 125/193/167
f 162/197/72 161/73/73 125/193/167 126/199/169
f 147/71/71 162/72/72 126/194/169 127/179/171
f 164/124/124 163/195/122 72/90/90 71/89/89
f 165/126/126 164/124/124 71/89/89 70/88/88
f 166/128/128 165/126/126 70/88/88 69/87/87
f 167/130/130 166/128/128 69/87/87 68/86/86
f 168/101/101 167/130/130 68/86/86 67/85/85
f 169/102/102 168/101/101 67/85/85 66/83/83
f 170/104/104 169/102/102 66/83/83 65/82/82
f 171/106/106 170/104/104 65/82/82 80/98/98
f 172/108/108 171/106/106 80/98/98 79/97/97
f 173/110/110 172/108/108 79/97/97 78/96/96
f 174/112/112 173/110/110 78/96/96 77/95/95
f 175/114/114 174/112/112 77/95/95 76/94/94
f 176/116/116 175/114/114 76/94/94 75/93/93
f 177/118/118 176/116/116 75/93/93 74/92/92
f 178/120/120 177/118/118 74/92/92 73/91/91
f 163/122/122 178/120/120 73/91/91 72/196/90
